<svg version="1.1" viewBox="0.0 0.0 1282.2230971128608 452.4803149606299" fill="none" stroke="none" stroke-linecap="square" stroke-miterlimit="10" xmlns:xlink="http://www.w3.org/1999/xlink" xmlns="http://www.w3.org/2000/svg"><clipPath id="p.0"><path d="m0 0l1282.2231 0l0 452.48032l-1282.2231 0l0 -452.48032z" clip-rule="nonzero"/></clipPath><g clip-path="url(#p.0)"><path fill="#000000" fill-opacity="0.0" d="m0 0l1282.2231 0l0 452.48032l-1282.2231 0z" fill-rule="evenodd"/><path fill="#000000" fill-opacity="0.0" d="m8.2021 9.0131235l392.31497 0l0 355.43307l-392.31497 0z" fill-rule="evenodd"/><path stroke="#000000" stroke-width="2.0" stroke-linejoin="round" stroke-linecap="butt" d="m8.2021 9.0131235l392.31497 0l0 355.43307l-392.31497 0z" fill-rule="evenodd"/><path fill="#000000" d="m62.824146 262.38458l0 0c0 -25.170258 20.404537 -45.574783 45.574802 -45.574783l0 0c12.087189 0 23.679314 4.801605 32.22625 13.348541c8.546936 8.546936 13.3485565 20.139069 13.3485565 32.226242l0 0c0 25.170288 -20.404541 45.57483 -45.574806 45.57483l0 0c-25.170265 0 -45.574802 -20.404541 -45.574802 -45.57483z" fill-rule="evenodd"/><path fill="#ffffff" d="m97.496605 260.76834l0 1.796875q0.875 -1.0625 1.875 -1.59375q1.015625 -0.546875 2.390625 -0.546875q1.453125 0 2.671875 0.6875q1.234375 0.671875 1.90625 1.890625q0.671875 1.203125 0.671875 2.546875q0 2.109375 -1.515625 3.625q-1.515625 1.5 -3.734375 1.5q-2.625 0 -4.265625 -2.140625l0 5.9375l2.390625 0q0.34375 0 0.5 0.125q0.15625 0.140625 0.15625 0.359375q0 0.21875 -0.15625 0.359375q-0.15625 0.140625 -0.5 0.140625l-4.703125 0q-0.359375 0 -0.515625 -0.140625q-0.140625 -0.140625 -0.140625 -0.359375q0 -0.21875 0.140625 -0.359375q0.15625 -0.125 0.515625 -0.125l1.328125 0l0 -12.703125l-1.328125 0q-0.359375 0 -0.515625 -0.140625q-0.140625 -0.140625 -0.140625 -0.359375q0 -0.21875 0.140625 -0.359375q0.15625 -0.140625 0.515625 -0.140625l2.3125 0zm8.53125 4.78125q0 -1.703125 -1.25 -2.90625q-1.234375 -1.21875 -3.015625 -1.21875q-1.78125 0 -3.03125 1.21875q-1.234375 1.21875 -1.234375 2.90625q0 1.6875 1.234375 2.90625q1.25 1.21875 3.03125 1.21875q1.78125 0 3.015625 -1.203125q1.25 -1.21875 1.25 -2.921875zm10.058594 -9.53125l0 13.921875l3.375 0q0.359375 0 0.5 0.140625q0.15625 0.125 0.15625 0.34375q0 0.21875 -0.15625 0.359375q-0.140625 0.140625 -0.5 0.140625l-7.734375 0q-0.34375 0 -0.5 -0.140625q-0.15625 -0.140625 -0.15625 -0.359375q0 -0.21875 0.15625 -0.34375q0.15625 -0.140625 0.5 -0.140625l3.375 0l0 -12.5625l-3.203125 1.0q-0.234375 0.078125 -0.34375 0.078125q-0.171875 0 -0.328125 -0.140625q-0.140625 -0.15625 -0.140625 -0.359375q0 -0.171875 0.109375 -0.328125q0.09375 -0.09375 0.390625 -0.1875l4.5 -1.421875z" fill-rule="nonzero"/><path fill="#000000" fill-opacity="0.0" d="m148.07611 358.12335l112.566925 0l0 58.17325l-112.566925 0z" fill-rule="evenodd"/><path fill="#000000" d="m189.34396 395.54648l-0.46875 2.3125q-1.015625 0.265625 -1.96875 0.265625q-1.6875 0 -2.6875 -0.828125q-0.75 -0.625 -0.75 -1.703125q0 -0.546875 0.40625 -2.515625l2.015625 -9.640625l-2.234375 0l0.453125 -2.1875l2.234375 0l0.859375 -4.078125l3.234375 -1.953125l-1.265625 6.03125l2.78125 0l-0.46875 2.1875l-2.765625 0l-1.921875 9.171875q-0.359375 1.75 -0.359375 2.09375q0 0.5 0.28125 0.765625q0.296875 0.265625 0.953125 0.265625q0.9375 0 1.671875 -0.1875z" fill-rule="nonzero"/><path fill="#000000" d="m207.46896 384.3746l-15.125 0l0 -2.625l15.125 0l0 2.625zm0 6.953125l-15.125 0l0 -2.625l15.125 0l0 2.625zm3.109375 -4.78125q0 -4.0625 0.828125 -6.53125q0.84373474 -2.484375 2.4843597 -3.828125q1.65625 -1.34375 4.15625 -1.34375q1.84375 0 3.234375 0.75q1.390625 0.734375 2.296875 2.140625q0.90625 1.390625 1.421875 3.40625q0.515625 2.0 0.515625 5.40625q0 4.03125 -0.828125 6.515625q-0.828125 2.46875 -2.484375 3.828125q-1.640625 1.34375 -4.15625 1.34375q-3.3125 0 -5.203125 -2.375q-2.2656097 -2.859375 -2.2656097 -9.3125zm2.8906097 0q0 5.640625 1.3125 7.515625q1.328125 1.859375 3.265625 1.859375q1.9375 0 3.25 -1.875q1.328125 -1.875 1.328125 -7.5q0 -5.65625 -1.328125 -7.515625q-1.3125 -1.859375 -3.28125 -1.859375q-1.9375 0 -3.09375 1.640625q-1.453125 2.09375 -1.453125 7.734375z" fill-rule="nonzero"/><path fill="#000000" fill-opacity="0.0" d="m448.2021 9.0131235l392.315 0l0 355.43307l-392.315 0z" fill-rule="evenodd"/><path stroke="#000000" stroke-width="2.0" stroke-linejoin="round" stroke-linecap="butt" d="m448.2021 9.0131235l392.315 0l0 355.43307l-392.315 0z" fill-rule="evenodd"/><path fill="#000000" fill-opacity="0.0" d="m888.2021 9.0131235l392.315 0l0 355.43307l-392.315 0z" fill-rule="evenodd"/><path stroke="#000000" stroke-width="2.0" stroke-linejoin="round" stroke-linecap="butt" d="m888.2021 9.0131235l392.315 0l0 355.43307l-392.315 0z" fill-rule="evenodd"/><path fill="#000000" fill-opacity="0.0" d="m433.15353 358.12335l425.5433 0l0 90.48819l-425.5433 0z" fill-rule="evenodd"/><path fill="#000000" d="m639.808 395.54648l-0.46875 2.3125q-1.015625 0.265625 -1.96875 0.265625q-1.6875 0 -2.6875 -0.828125q-0.75 -0.625 -0.75 -1.703125q0 -0.546875 0.40625 -2.515625l2.015625 -9.640625l-2.234375 0l0.453125 -2.1875l2.234375 0l0.859375 -4.078125l3.234375 -1.953125l-1.265625 6.03125l2.78125 0l-0.46875 2.1875l-2.765625 0l-1.921875 9.171875q-0.359375 1.75 -0.359375 2.09375q0 0.5 0.28125 0.765625q0.296875 0.265625 0.953125 0.265625q0.9375 0 1.671875 -0.1875z" fill-rule="nonzero"/><path fill="#000000" d="m657.933 384.3746l-15.125 0l0 -2.625l15.125 0l0 2.625zm0 6.953125l-15.125 0l0 -2.625l15.125 0l0 2.625z" fill-rule="nonzero"/><path fill="#000000" d="m465.8422 419.85773l0 1.984375q0.984375 -1.1875 2.09375 -1.78125q1.125 -0.59375 2.640625 -0.59375q1.625 0 2.984375 0.75q1.375 0.75 2.109375 2.109375q0.75 1.34375 0.75 2.828125q0 2.34375 -1.6875 4.03125q-1.671875 1.671875 -4.140625 1.671875q-2.921875 0 -4.75 -2.390625l0 6.59375l2.65625 0q0.390625 0 0.5625 0.140625q0.171875 0.15625 0.171875 0.40625q0 0.234375 -0.171875 0.390625q-0.171875 0.15625 -0.5625 0.15625l-5.21875 0q-0.390625 0 -0.5625 -0.15625q-0.171875 -0.15625 -0.171875 -0.390625q0 -0.25 0.171875 -0.40625q0.171875 -0.140625 0.5625 -0.140625l1.46875 0l0 -14.109375l-1.46875 0q-0.390625 0 -0.5625 -0.15625q-0.171875 -0.15625 -0.171875 -0.390625q0 -0.234375 0.171875 -0.390625q0.171875 -0.15625 0.5625 -0.15625l2.5625 0zm9.484375 5.296875q0 -1.890625 -1.375 -3.234375q-1.375 -1.359375 -3.359375 -1.359375q-1.984375 0 -3.375 1.359375q-1.375 1.359375 -1.375 3.234375q0 1.875 1.375 3.234375q1.390625 1.359375 3.375 1.359375q1.96875 0 3.34375 -1.34375q1.390625 -1.359375 1.390625 -3.25zm11.168213 -10.59375l0 15.46875l3.75 0q0.390625 0 0.5625 0.15625q0.171875 0.140625 0.171875 0.390625q0 0.234375 -0.171875 0.390625q-0.171875 0.15625 -0.5625 0.15625l-8.578125 0q-0.390625 0 -0.5625 -0.15625q-0.171875 -0.15625 -0.171875 -0.390625q0 -0.25 0.171875 -0.390625q0.171875 -0.15625 0.5625 -0.15625l3.734375 0l0 -13.953125l-3.5625 1.125q-0.25 0.078125 -0.375 0.078125q-0.1875 0 -0.359375 -0.15625q-0.15625 -0.171875 -0.15625 -0.390625q0 -0.203125 0.125 -0.375q0.109375 -0.09375 0.4375 -0.21875l4.984375 -1.578125zm15.230743 13.421875l0.46875 0q0.734375 0 1.25 0.515625q0.53125 0.515625 0.53125 1.25q0 0.75 -0.53125 1.265625q-0.53125 0.5 -1.25 0.5l-0.46875 0q-0.71875 0 -1.25 -0.515625q-0.515625 -0.515625 -0.515625 -1.234375q0 -0.765625 0.515625 -1.265625q0.53125 -0.515625 1.25 -0.515625zm19.902588 -6.125l0 -2.0l2.5625 0q0.390625 0 0.5625 0.15625q0.171875 0.15625 0.171875 0.390625q0 0.234375 -0.171875 0.390625q-0.171875 0.15625 -0.5625 0.15625l-1.46875 0l0 10.921875q0 1.09375 -0.46875 1.953125q-0.3125 0.578125 -1.046875 1.1875q-0.71875 0.609375 -1.328125 0.875q-0.59375 0.265625 -1.59375 0.265625l-3.09375 0q-0.390625 0 -0.5625 -0.15625q-0.171875 -0.15625 -0.171875 -0.390625q0 -0.25 0.171875 -0.40625q0.171875 -0.15625 0.5625 -0.15625l3.140625 0.015625q0.953125 0 1.71875 -0.5q0.78125 -0.5 1.296875 -1.453125q0.28125 -0.546875 0.28125 -1.390625l0 -3.28125q-1.75 2.421875 -4.53125 2.421875q-2.25 0 -3.890625 -1.671875q-1.625 -1.6875 -1.625 -4.03125q0 -2.359375 1.625 -4.015625q1.640625 -1.671875 3.890625 -1.671875q2.78125 0 4.53125 2.390625zm0 3.296875q0 -1.9375 -1.328125 -3.265625q-1.3125 -1.328125 -3.140625 -1.328125q-1.84375 0 -3.15625 1.34375q-1.3125 1.328125 -1.3125 3.25q0 1.921875 1.3125 3.265625q1.3125 1.328125 3.15625 1.328125q1.828125 0 3.140625 -1.328125q1.328125 -1.34375 1.328125 -3.265625zm18.230713 0.59375l-11.140625 0q0.296875 2.125 1.78125 3.421875q1.5 1.296875 3.6875 1.296875q1.234375 0 2.5625 -0.40625q1.34375 -0.40625 2.1875 -1.078125q0.25 -0.1875 0.4375 -0.1875q0.203125 0 0.359375 0.171875q0.15625 0.15625 0.15625 0.375q0 0.21875 -0.203125 0.421875q-0.625 0.65625 -2.21875 1.21875q-1.59375 0.5625 -3.28125 0.5625q-2.8125 0 -4.6875 -1.828125q-1.875 -1.84375 -1.875 -4.46875q0 -2.375 1.75 -4.078125q1.765625 -1.703125 4.375 -1.703125q2.6875 0 4.40625 1.75q1.734375 1.75 1.703125 4.53125zm-1.09375 -1.109375q-0.328125 -1.8125 -1.71875 -2.9375q-1.390625 -1.140625 -3.296875 -1.140625q-1.90625 0 -3.296875 1.125q-1.375 1.125 -1.71875 2.953125l10.03125 0zm8.933899 -4.78125l5.9375 0q0.390625 0 0.5625 0.15625q0.171875 0.15625 0.171875 0.390625q0 0.234375 -0.171875 0.390625q-0.171875 0.15625 -0.5625 0.15625l-5.9375 0l0 7.28125q0 0.953125 0.765625 1.59375q0.765625 0.640625 2.234375 0.640625q1.109375 0 2.390625 -0.328125q1.296875 -0.34375 2.0 -0.765625q0.265625 -0.15625 0.4375 -0.15625q0.203125 0 0.359375 0.15625q0.15625 0.15625 0.15625 0.390625q0 0.1875 -0.171875 0.359375q-0.40625 0.421875 -2.015625 0.921875q-1.609375 0.5 -3.078125 0.5q-1.921875 0 -3.0625 -0.890625q-1.125 -0.890625 -1.125 -2.421875l0 -7.28125l-2.015625 0q-0.390625 0 -0.5625 -0.15625q-0.15625 -0.15625 -0.15625 -0.390625q0 -0.234375 0.15625 -0.390625q0.171875 -0.15625 0.5625 -0.15625l2.015625 0l0 -3.234375q0 -0.390625 0.15625 -0.5625q0.15625 -0.171875 0.390625 -0.171875q0.25 0 0.40625 0.171875q0.15625 0.171875 0.15625 0.5625l0 3.234375zm23.058838 -2.46875l0 -0.765625q0 -0.390625 0.140625 -0.5625q0.15625 -0.171875 0.40625 -0.171875q0.234375 0 0.390625 0.171875q0.15625 0.171875 0.15625 0.5625l0 3.03125q0 0.40625 -0.15625 0.578125q-0.15625 0.171875 -0.390625 0.171875q-0.21875 0 -0.375 -0.15625q-0.15625 -0.15625 -0.171875 -0.515625q-0.0625 -1.09375 -1.1875 -1.9375q-1.515625 -1.15625 -3.4375 -1.15625q-1.265625 0 -2.375 0.5625q-0.84375 0.40625 -1.328125 0.984375q-0.859375 1.015625 -1.375 2.25q-0.359375 0.90625 -0.359375 2.0625l0 1.90625q0 2.453125 1.765625 4.265625q1.765625 1.796875 4.109375 1.796875q1.40625 0 2.515625 -0.609375q1.125 -0.625 2.15625 -1.859375q0.21875 -0.265625 0.5 -0.265625q0.234375 0 0.375 0.140625q0.140625 0.140625 0.140625 0.359375q0 0.296875 -0.5625 0.90625q-1.0625 1.203125 -2.40625 1.8125q-1.328125 0.59375 -2.6875 0.59375q-1.1875 0 -2.40625 -0.453125q-0.9375 -0.34375 -1.546875 -0.8125q-0.609375 -0.46875 -1.515625 -1.578125q-0.890625 -1.125 -1.21875 -2.0625q-0.3125 -0.9375 -0.3125 -2.078125l0 -2.21875q0 -1.625 0.859375 -3.296875q0.875 -1.6875 2.375 -2.59375q1.5 -0.90625 3.25 -0.90625q2.71875 0 4.671875 1.84375zm17.293213 8.125q0 2.5 -1.796875 4.265625q-1.78125 1.765625 -4.3125 1.765625q-2.546875 0 -4.328125 -1.765625q-1.78125 -1.78125 -1.78125 -4.265625q0 -2.5 1.78125 -4.265625q1.78125 -1.78125 4.328125 -1.78125q2.53125 0 4.3125 1.765625q1.796875 1.765625 1.796875 4.28125zm-1.109375 0q0 -2.0625 -1.46875 -3.5q-1.453125 -1.453125 -3.546875 -1.453125q-2.078125 0 -3.546875 1.453125q-1.453125 1.453125 -1.453125 3.5q0 2.03125 1.453125 3.5q1.46875 1.453125 3.546875 1.453125q2.09375 0 3.546875 -1.453125q1.46875 -1.453125 1.46875 -3.5zm11.543213 -10.71875l0 15.234375l4.296875 0q0.40625 0 0.578125 0.15625q0.171875 0.140625 0.171875 0.390625q0 0.234375 -0.171875 0.390625q-0.171875 0.15625 -0.578125 0.15625l-9.6875 0q-0.390625 0 -0.5625 -0.15625q-0.15625 -0.15625 -0.15625 -0.390625q0 -0.25 0.15625 -0.390625q0.171875 -0.15625 0.5625 -0.15625l4.296875 0l0 -14.140625l-3.140625 0q-0.390625 0 -0.578125 -0.15625q-0.171875 -0.15625 -0.171875 -0.390625q0 -0.234375 0.171875 -0.390625q0.171875 -0.15625 0.578125 -0.15625l4.234375 0zm15.996399 0l0 15.234375l4.296875 0q0.40625 0 0.578125 0.15625q0.171875 0.140625 0.171875 0.390625q0 0.234375 -0.171875 0.390625q-0.171875 0.15625 -0.578125 0.15625l-9.6875 0q-0.390625 0 -0.5625 -0.15625q-0.15625 -0.15625 -0.15625 -0.390625q0 -0.25 0.15625 -0.390625q0.171875 -0.15625 0.5625 -0.15625l4.296875 0l0 -14.140625l-3.140625 0q-0.390625 0 -0.578125 -0.15625q-0.171875 -0.15625 -0.171875 -0.390625q0 -0.234375 0.171875 -0.390625q0.171875 -0.15625 0.578125 -0.15625l4.234375 0zm15.980713 -0.546875l0 2.8125l-1.609375 0l0 -2.8125l1.609375 0zm0.046875 5.609375l0 10.171875l4.296875 0q0.40625 0 0.5625 0.15625q0.171875 0.140625 0.171875 0.390625q0 0.234375 -0.171875 0.390625q-0.15625 0.15625 -0.5625 0.15625l-9.6875 0q-0.390625 0 -0.5625 -0.15625q-0.171875 -0.15625 -0.171875 -0.390625q0 -0.25 0.171875 -0.390625q0.171875 -0.15625 0.5625 -0.15625l4.296875 0l0 -9.078125l-3.1875 0q-0.390625 0 -0.578125 -0.15625q-0.171875 -0.15625 -0.171875 -0.390625q0 -0.234375 0.171875 -0.390625q0.171875 -0.15625 0.578125 -0.15625l4.28125 0zm19.027588 0.703125q0 -0.375 0.15625 -0.53125q0.15625 -0.171875 0.390625 -0.171875q0.25 0 0.40625 0.171875q0.15625 0.15625 0.15625 0.5625l0 1.875q0 0.390625 -0.15625 0.5625q-0.15625 0.171875 -0.40625 0.171875q-0.21875 0 -0.375 -0.140625q-0.140625 -0.15625 -0.171875 -0.46875q-0.078125 -0.78125 -0.8125 -1.296875q-1.0625 -0.734375 -2.8125 -0.734375q-1.84375 0 -2.859375 0.75q-0.765625 0.5625 -0.765625 1.25q0 0.78125 0.90625 1.296875q0.625 0.375 2.375 0.5625q2.28125 0.25 3.15625 0.5625q1.265625 0.453125 1.875 1.265625q0.625 0.796875 0.625 1.734375q0 1.390625 -1.34375 2.484375q-1.328125 1.078125 -3.921875 1.078125q-2.59375 0 -4.25 -1.3125q0 0.453125 -0.046875 0.578125q-0.046875 0.125 -0.1875 0.21875q-0.140625 0.09375 -0.3125 0.09375q-0.234375 0 -0.390625 -0.171875q-0.15625 -0.171875 -0.15625 -0.5625l0 -2.25q0 -0.390625 0.15625 -0.546875q0.15625 -0.171875 0.390625 -0.171875q0.234375 0 0.390625 0.15625q0.171875 0.15625 0.171875 0.4375q0 0.59375 0.296875 1.0q0.46875 0.625 1.453125 1.046875q1.0 0.40625 2.4375 0.40625q2.140625 0 3.171875 -0.796875q1.046875 -0.796875 1.046875 -1.6875q0 -1.015625 -1.046875 -1.625q-1.0625 -0.609375 -3.109375 -0.8125q-2.03125 -0.21875 -2.921875 -0.546875q-0.875 -0.34375 -1.375 -1.015625q-0.5 -0.6875 -0.5 -1.46875q0 -1.40625 1.375 -2.21875q1.390625 -0.828125 3.296875 -0.828125q2.265625 0 3.6875 1.09375zm12.918213 -6.3125l0 2.8125l-1.609375 0l0 -2.8125l1.609375 0zm0.046875 5.609375l0 10.171875l4.296875 0q0.40625 0 0.5625 0.15625q0.171875 0.140625 0.171875 0.390625q0 0.234375 -0.171875 0.390625q-0.15625 0.15625 -0.5625 0.15625l-9.6875 0q-0.390625 0 -0.5625 -0.15625q-0.171875 -0.15625 -0.171875 -0.390625q0 -0.25 0.171875 -0.390625q0.171875 -0.15625 0.5625 -0.15625l4.296875 0l0 -9.078125l-3.1875 0q-0.390625 0 -0.578125 -0.15625q-0.171875 -0.15625 -0.171875 -0.390625q0 -0.234375 0.171875 -0.390625q0.171875 -0.15625 0.578125 -0.15625l4.28125 0zm21.527649 5.65625q0 2.5 -1.796875 4.265625q-1.78125 1.765625 -4.3125 1.765625q-2.546875 0 -4.328125 -1.765625q-1.78125 -1.78125 -1.78125 -4.265625q0 -2.5 1.78125 -4.265625q1.78125 -1.78125 4.328125 -1.78125q2.53125 0 4.3125 1.765625q1.796875 1.765625 1.796875 4.28125zm-1.109375 0q0 -2.0625 -1.46875 -3.5q-1.453125 -1.453125 -3.546875 -1.453125q-2.078125 0 -3.546875 1.453125q-1.453125 1.453125 -1.453125 3.5q0 2.03125 1.453125 3.5q1.46875 1.453125 3.546875 1.453125q2.09375 0 3.546875 -1.453125q1.46875 -1.453125 1.46875 -3.5zm7.465088 -5.65625l0 1.640625q1.140625 -1.15625 2.0625 -1.59375q0.921875 -0.4375 2.078125 -0.4375q1.25 0 2.28125 0.53125q0.734375 0.390625 1.328125 1.296875q0.59375 0.90625 0.59375 1.84375l0 6.890625l0.921875 0q0.390625 0 0.546875 0.15625q0.171875 0.140625 0.171875 0.390625q0 0.234375 -0.171875 0.390625q-0.15625 0.15625 -0.546875 0.15625l-2.9375 0q-0.390625 0 -0.5625 -0.15625q-0.171875 -0.15625 -0.171875 -0.390625q0 -0.25 0.171875 -0.390625q0.171875 -0.15625 0.5625 -0.15625l0.921875 0l0 -6.703125q0 -1.15625 -0.859375 -1.953125q-0.84375 -0.8125 -2.25 -0.8125q-1.09375 0 -1.890625 0.4375q-0.78125 0.4375 -2.25 2.171875l0 6.859375l1.234375 0q0.390625 0 0.5625 0.15625q0.171875 0.140625 0.171875 0.390625q0 0.234375 -0.171875 0.390625q-0.171875 0.15625 -0.5625 0.15625l-3.5625 0q-0.390625 0 -0.5625 -0.15625q-0.171875 -0.15625 -0.171875 -0.390625q0 -0.25 0.171875 -0.390625q0.171875 -0.15625 0.5625 -0.15625l1.234375 0l0 -9.078125l-0.921875 0q-0.390625 0 -0.5625 -0.15625q-0.171875 -0.15625 -0.171875 -0.390625q0 -0.234375 0.171875 -0.390625q0.171875 -0.15625 0.5625 -0.15625l2.015625 0zm20.058838 -2.875l0 13.046875l2.84375 0q0.390625 0 0.5625 0.15625q0.171875 0.140625 0.171875 0.390625q0 0.234375 -0.171875 0.390625q-0.171875 0.15625 -0.5625 0.15625l-6.78125 0q-0.390625 0 -0.5625 -0.15625q-0.171875 -0.15625 -0.171875 -0.390625q0 -0.25 0.171875 -0.390625q0.171875 -0.15625 0.5625 -0.15625l2.84375 0l0 -13.046875l-4.484375 0l0 3.796875q0 0.40625 -0.15625 0.578125q-0.140625 0.15625 -0.390625 0.15625q-0.234375 0 -0.390625 -0.15625q-0.15625 -0.171875 -0.15625 -0.578125l0 -4.890625l12.25 0l0 4.890625q0 0.40625 -0.15625 0.578125q-0.140625 0.15625 -0.390625 0.15625q-0.25 0 -0.40625 -0.15625q-0.140625 -0.171875 -0.140625 -0.578125l0 -3.796875l-4.484375 0zm15.996399 -2.734375l0 2.8125l-1.609375 0l0 -2.8125l1.609375 0zm0.046875 5.609375l0 10.171875l4.296875 0q0.40625 0 0.5625 0.15625q0.171875 0.140625 0.171875 0.390625q0 0.234375 -0.171875 0.390625q-0.15625 0.15625 -0.5625 0.15625l-9.6875 0q-0.390625 0 -0.5625 -0.15625q-0.171875 -0.15625 -0.171875 -0.390625q0 -0.25 0.171875 -0.390625q0.171875 -0.15625 0.5625 -0.15625l4.296875 0l0 -9.078125l-3.1875 0q-0.390625 0 -0.578125 -0.15625q-0.171875 -0.15625 -0.171875 -0.390625q0 -0.234375 0.171875 -0.390625q0.171875 -0.15625 0.578125 -0.15625l4.28125 0zm10.433838 0l0 1.09375q1.390625 -1.484375 2.796875 -1.484375q0.859375 0 1.484375 0.453125q0.640625 0.4375 1.078125 1.34375q0.71875 -0.90625 1.46875 -1.34375q0.75 -0.453125 1.5 -0.453125q1.1875 0 1.890625 0.765625q0.921875 0.984375 0.921875 2.15625l0 7.640625l0.921875 0q0.390625 0 0.5625 0.15625q0.171875 0.140625 0.171875 0.390625q0 0.234375 -0.171875 0.390625q-0.171875 0.15625 -0.5625 0.15625l-2.015625 0l0 -8.625q0 -0.84375 -0.515625 -1.390625q-0.5 -0.546875 -1.15625 -0.546875q-0.59375 0 -1.265625 0.453125q-0.65625 0.453125 -1.515625 1.765625l0 7.25l0.921875 0q0.390625 0 0.546875 0.15625q0.171875 0.140625 0.171875 0.390625q0 0.234375 -0.171875 0.390625q-0.15625 0.15625 -0.546875 0.15625l-2.015625 0l0 -8.546875q0 -0.875 -0.515625 -1.4375q-0.515625 -0.578125 -1.15625 -0.578125q-0.578125 0 -1.15625 0.390625q-0.796875 0.53125 -1.671875 1.828125l0 7.25l0.921875 0q0.390625 0 0.5625 0.15625q0.171875 0.140625 0.171875 0.390625q0 0.234375 -0.171875 0.390625q-0.171875 0.15625 -0.5625 0.15625l-2.9375 0q-0.390625 0 -0.5625 -0.15625q-0.171875 -0.15625 -0.171875 -0.390625q0 -0.25 0.171875 -0.390625q0.171875 -0.15625 0.5625 -0.15625l0.921875 0l0 -9.078125l-0.921875 0q-0.390625 0 -0.5625 -0.15625q-0.171875 -0.15625 -0.171875 -0.390625q0 -0.234375 0.171875 -0.390625q0.171875 -0.15625 0.5625 -0.15625l2.015625 0zm26.886963 5.890625l-11.140625 0q0.296875 2.125 1.78125 3.421875q1.5 1.296875 3.6875 1.296875q1.234375 0 2.5625 -0.40625q1.34375 -0.40625 2.1875 -1.078125q0.25 -0.1875 0.4375 -0.1875q0.203125 0 0.359375 0.171875q0.15625 0.15625 0.15625 0.375q0 0.21875 -0.203125 0.421875q-0.625 0.65625 -2.21875 1.21875q-1.59375 0.5625 -3.28125 0.5625q-2.8125 0 -4.6875 -1.828125q-1.875 -1.84375 -1.875 -4.46875q0 -2.375 1.75 -4.078125q1.765625 -1.703125 4.375 -1.703125q2.6875 0 4.40625 1.75q1.734375 1.75 1.703125 4.53125zm-1.09375 -1.109375q-0.328125 -1.8125 -1.71875 -2.9375q-1.390625 -1.140625 -3.296875 -1.140625q-1.90625 0 -3.296875 1.125q-1.375 1.125 -1.71875 2.953125l10.03125 0zm11.058838 0q0 -1.5 0.390625 -3.171875q0.390625 -1.6875 1.5 -3.875q1.109375 -2.203125 1.609375 -2.65625q0.15625 -0.140625 0.34375 -0.140625q0.234375 0 0.390625 0.15625q0.171875 0.15625 0.171875 0.375q0 0.125 -0.09375 0.28125q-1.4375 2.625 -2.046875 4.765625q-0.609375 2.140625 -0.609375 4.265625q0 2.15625 0.609375 4.296875q0.609375 2.125 2.046875 4.734375q0.09375 0.15625 0.09375 0.296875q0 0.21875 -0.171875 0.375q-0.15625 0.171875 -0.390625 0.171875q-0.1875 0 -0.34375 -0.15625q-0.484375 -0.4375 -1.578125 -2.59375q-1.09375 -2.140625 -1.515625 -3.78125q-0.40625 -1.65625 -0.40625 -3.34375zm11.996338 -4.78125l0 1.984375q0.984375 -1.1875 2.09375 -1.78125q1.125 -0.59375 2.640625 -0.59375q1.625 0 2.984375 0.75q1.375 0.75 2.109375 2.109375q0.75 1.34375 0.75 2.828125q0 2.34375 -1.6875 4.03125q-1.671875 1.671875 -4.140625 1.671875q-2.921875 0 -4.75 -2.390625l0 6.59375l2.65625 0q0.390625 0 0.5625 0.140625q0.171875 0.15625 0.171875 0.40625q0 0.234375 -0.171875 0.390625q-0.171875 0.15625 -0.5625 0.15625l-5.21875 0q-0.390625 0 -0.5625 -0.15625q-0.171875 -0.15625 -0.171875 -0.390625q0 -0.25 0.171875 -0.40625q0.171875 -0.140625 0.5625 -0.140625l1.46875 0l0 -14.109375l-1.46875 0q-0.390625 0 -0.5625 -0.15625q-0.171875 -0.15625 -0.171875 -0.390625q0 -0.234375 0.171875 -0.390625q0.171875 -0.15625 0.5625 -0.15625l2.5625 0zm9.484375 5.296875q0 -1.890625 -1.375 -3.234375q-1.375 -1.359375 -3.359375 -1.359375q-1.984375 0 -3.375 1.359375q-1.375 1.359375 -1.375 3.234375q0 1.875 1.375 3.234375q1.390625 1.359375 3.375 1.359375q1.96875 0 3.34375 -1.34375q1.390625 -1.359375 1.390625 -3.25zm5.933838 4.875l8.390625 0l0 -0.421875q0 -0.390625 0.15625 -0.5625q0.15625 -0.171875 0.40625 -0.171875q0.234375 0 0.390625 0.171875q0.15625 0.171875 0.15625 0.5625l0 1.515625l-10.578125 0l0 -1.609375q3.34375 -3.0 6.484375 -6.09375q1.46875 -1.453125 2.015625 -2.125q0.546875 -0.671875 0.75 -1.1875q0.203125 -0.515625 0.203125 -1.03125q0 -1.40625 -1.140625 -2.484375q-1.125 -1.09375 -2.71875 -1.09375q-1.4375 0 -2.546875 0.828125q-1.09375 0.8125 -1.421875 2.03125q-0.078125 0.3125 -0.203125 0.40625q-0.15625 0.125 -0.359375 0.125q-0.21875 0 -0.375 -0.140625q-0.140625 -0.15625 -0.140625 -0.375q0 -0.609375 0.671875 -1.671875q0.6875 -1.078125 1.890625 -1.6875q1.203125 -0.609375 2.46875 -0.609375q2.046875 0 3.515625 1.421875q1.46875 1.40625 1.46875 3.203125q0 0.75 -0.25 1.390625q-0.25 0.625 -0.84375 1.375q-0.578125 0.75 -2.125 2.265625q-3.84375 3.796875 -6.265625 5.890625l0 0.078125zm21.011963 -5.375q0 1.5 -0.390625 3.171875q-0.390625 1.671875 -1.5 3.875q-1.09375 2.203125 -1.609375 2.65625q-0.15625 0.15625 -0.328125 0.15625q-0.234375 0 -0.40625 -0.171875q-0.15625 -0.15625 -0.15625 -0.375q0 -0.140625 0.09375 -0.296875q1.421875 -2.609375 2.03125 -4.734375q0.625 -2.140625 0.625 -4.28125q0 -2.140625 -0.625 -4.28125q-0.609375 -2.140625 -2.03125 -4.765625q-0.09375 -0.15625 -0.09375 -0.28125q0 -0.21875 0.15625 -0.375q0.171875 -0.15625 0.40625 -0.15625q0.171875 0 0.328125 0.140625q0.484375 0.4375 1.578125 2.59375q1.09375 2.140625 1.5 3.796875q0.421875 1.65625 0.421875 3.328125z" fill-rule="nonzero"/><path fill="#000000" fill-opacity="0.0" d="m1001.79266 358.12335l165.13385 0l0 58.17325l-165.13385 0z" fill-rule="evenodd"/><path fill="#000000" d="m1064.9065 395.54648l-0.46875 2.3125q-1.015625 0.265625 -1.96875 0.265625q-1.6875 0 -2.6875 -0.828125q-0.75 -0.625 -0.75 -1.703125q0 -0.546875 0.40625 -2.515625l2.015625 -9.640625l-2.234375 0l0.453125 -2.1875l2.234375 0l0.859375 -4.078125l3.234375 -1.953125l-1.265625 6.03125l2.78125 0l-0.46875 2.1875l-2.765625 0l-1.921875 9.171875q-0.359375 1.75 -0.359375 2.09375q0 0.5 0.28125 0.765625q0.296875 0.265625 0.953125 0.265625q0.9375 0 1.671875 -0.1875z" fill-rule="nonzero"/><path fill="#000000" d="m1083.0315 384.3746l-15.125 0l0 -2.625l15.125 0l0 2.625zm0 6.953125l-15.125 0l0 -2.625l15.125 0l0 2.625zm4.6875 6.515625l0 -3.203125l3.203125 0l0 3.203125l-3.203125 0zm8.890625 0l0 -3.203125l3.203125 0l0 3.203125l-3.203125 0zm8.890625 0l0 -3.203125l3.203125 0l0 3.203125l-3.203125 0z" fill-rule="nonzero"/><path fill="#0000ff" d="m275.15887 311.5373l0 0c0 -25.170288 20.404541 -45.57483 45.5748 -45.57483l0 0c12.087189 0 23.679321 4.8016357 32.226257 13.348572c8.546936 8.546936 13.348572 20.139069 13.348572 32.226257l0 0c0 25.170258 -20.404541 45.5748 -45.57483 45.5748l0 0c-25.170258 0 -45.5748 -20.404541 -45.5748 -45.5748z" fill-rule="evenodd"/><path fill="#ffffff" d="m309.83133 309.92102l0 1.796875q0.875 -1.0625 1.875 -1.59375q1.015625 -0.546875 2.390625 -0.546875q1.453125 0 2.671875 0.6875q1.234375 0.671875 1.90625 1.890625q0.671875 1.203125 0.671875 2.546875q0 2.109375 -1.515625 3.625q-1.515625 1.5 -3.734375 1.5q-2.625 0 -4.265625 -2.140625l0 5.9375l2.390625 0q0.34375 0 0.5 0.125q0.15625 0.140625 0.15625 0.359375q0 0.21875 -0.15625 0.359375q-0.15625 0.140625 -0.5 0.140625l-4.703125 0q-0.359375 0 -0.515625 -0.140625q-0.140625 -0.140625 -0.140625 -0.359375q0 -0.21875 0.140625 -0.359375q0.15625 -0.125 0.515625 -0.125l1.328125 0l0 -12.703125l-1.328125 0q-0.359375 0 -0.515625 -0.140625q-0.140625 -0.140625 -0.140625 -0.359375q0 -0.21875 0.140625 -0.359375q0.15625 -0.140625 0.515625 -0.140625l2.3125 0zm8.53125 4.78125q0 -1.703125 -1.25 -2.90625q-1.234375 -1.21875 -3.015625 -1.21875q-1.78125 0 -3.03125 1.21875q-1.234375 1.21875 -1.234375 2.90625q0 1.6875 1.234375 2.90625q1.25 1.21875 3.03125 1.21875q1.78125 0 3.015625 -1.203125q1.25 -1.21875 1.25 -2.921875zm5.3398438 4.390625l7.5625 0l0 -0.390625q0 -0.34375 0.140625 -0.5q0.140625 -0.15625 0.359375 -0.15625q0.203125 0 0.34375 0.15625q0.140625 0.15625 0.140625 0.5l0 1.375l-9.515625 0l0 -1.453125q3.0 -2.703125 5.84375 -5.484375q1.328125 -1.296875 1.8125 -1.90625q0.5 -0.609375 0.671875 -1.078125q0.1875 -0.46875 0.1875 -0.9375q0 -1.265625 -1.03125 -2.234375q-1.015625 -0.96875 -2.453125 -0.96875q-1.28125 0 -2.28125 0.734375q-1.0 0.734375 -1.296875 1.828125q-0.0625 0.28125 -0.171875 0.359375q-0.140625 0.125 -0.328125 0.125q-0.203125 0 -0.34375 -0.125q-0.125 -0.140625 -0.125 -0.328125q0 -0.5625 0.609375 -1.515625q0.625 -0.96875 1.703125 -1.515625q1.09375 -0.5625 2.21875 -0.5625q1.84375 0 3.171875 1.28125q1.328125 1.28125 1.328125 2.890625q0 0.6875 -0.234375 1.25q-0.21875 0.5625 -0.75 1.25q-0.53125 0.671875 -1.921875 2.03125q-3.46875 3.421875 -5.640625 5.296875l0 0.078125z" fill-rule="nonzero"/><path fill="#000000" fill-opacity="0.0" d="m312.89383 312.94934l-96.25195 0" fill-rule="evenodd"/><path stroke="#ff0000" stroke-width="3.0" stroke-linejoin="round" stroke-linecap="butt" d="m312.89383 312.94934l-78.25195 0" fill-rule="evenodd"/><path fill="#ff0000" stroke="#ff0000" stroke-width="3.0" stroke-linecap="butt" d="m234.64188 307.99414l-13.614288 4.9552l13.614288 4.9552z" fill-rule="evenodd"/><path fill="#000000" fill-opacity="0.0" d="m107.989555 263.79834l96.09449 0" fill-rule="evenodd"/><path stroke="#ff0000" stroke-width="3.0" stroke-linejoin="round" stroke-linecap="butt" d="m107.989555 263.79834l78.094475 0" fill-rule="evenodd"/><path fill="#ff0000" stroke="#ff0000" stroke-width="3.0" stroke-linecap="butt" d="m186.08403 268.75354l13.614288 -4.9552l-13.614288 -4.9552z" fill-rule="evenodd"/><path fill="#000000" d="m558.8812 262.38458l0 0c0 -25.170258 20.404541 -45.574783 45.574768 -45.574783l0 0c12.087219 0 23.679321 4.801605 32.226257 13.348541c8.546936 8.546936 13.348572 20.139069 13.348572 32.226242l0 0c0 25.170288 -20.404541 45.57483 -45.57483 45.57483l0 0c-25.170227 0 -45.574768 -20.404541 -45.574768 -45.57483z" fill-rule="evenodd"/><path fill="#ffffff" d="m593.55365 260.76834l0 1.796875q0.875 -1.0625 1.875 -1.59375q1.015625 -0.546875 2.390625 -0.546875q1.453125 0 2.671875 0.6875q1.234375 0.671875 1.90625 1.890625q0.671875 1.203125 0.671875 2.546875q0 2.109375 -1.515625 3.625q-1.515625 1.5 -3.734375 1.5q-2.625 0 -4.265625 -2.140625l0 5.9375l2.390625 0q0.34375 0 0.5 0.125q0.15625 0.140625 0.15625 0.359375q0 0.21875 -0.15625 0.359375q-0.15625 0.140625 -0.5 0.140625l-4.703125 0q-0.359375 0 -0.515625 -0.140625q-0.140625 -0.140625 -0.140625 -0.359375q0 -0.21875 0.140625 -0.359375q0.15625 -0.125 0.515625 -0.125l1.328125 0l0 -12.703125l-1.328125 0q-0.359375 0 -0.515625 -0.140625q-0.140625 -0.140625 -0.140625 -0.359375q0 -0.21875 0.140625 -0.359375q0.15625 -0.140625 0.515625 -0.140625l2.3125 0zm8.53125 4.78125q0 -1.703125 -1.25 -2.90625q-1.234375 -1.21875 -3.015625 -1.21875q-1.78125 0 -3.03125 1.21875q-1.234375 1.21875 -1.234375 2.90625q0 1.6875 1.234375 2.90625q1.25 1.21875 3.03125 1.21875q1.78125 0 3.015625 -1.203125q1.25 -1.21875 1.25 -2.921875zm10.058594 -9.53125l0 13.921875l3.375 0q0.359375 0 0.5 0.140625q0.15625 0.125 0.15625 0.34375q0 0.21875 -0.15625 0.359375q-0.140625 0.140625 -0.5 0.140625l-7.734375 0q-0.34375 0 -0.5 -0.140625q-0.15625 -0.140625 -0.15625 -0.359375q0 -0.21875 0.15625 -0.34375q0.15625 -0.140625 0.5 -0.140625l3.375 0l0 -12.5625l-3.203125 1.0q-0.234375 0.078125 -0.34375 0.078125q-0.171875 0 -0.328125 -0.140625q-0.140625 -0.15625 -0.140625 -0.359375q0 -0.171875 0.109375 -0.328125q0.09375 -0.09375 0.390625 -0.1875l4.5 -1.421875z" fill-rule="nonzero"/><path fill="#0000ff" d="m636.2528 310.38626l0 0c0 -25.170258 20.404541 -45.5748 45.57483 -45.5748l0 0c12.087219 0 23.679321 4.8016357 32.226257 13.348541c8.546936 8.546936 13.348572 20.139069 13.348572 32.226257l0 0c0 25.170288 -20.404541 45.5748 -45.57483 45.5748l0 0c-25.170288 0 -45.57483 -20.40451 -45.57483 -45.5748z" fill-rule="evenodd"/><path fill="#ffffff" d="m670.9253 308.77002l0 1.796875q0.875 -1.0625 1.875 -1.59375q1.015625 -0.546875 2.390625 -0.546875q1.453125 0 2.671875 0.6875q1.234375 0.671875 1.90625 1.890625q0.671875 1.203125 0.671875 2.546875q0 2.109375 -1.515625 3.625q-1.515625 1.5 -3.734375 1.5q-2.625 0 -4.265625 -2.140625l0 5.9375l2.390625 0q0.34375 0 0.5 0.125q0.15625 0.140625 0.15625 0.359375q0 0.21875 -0.15625 0.359375q-0.15625 0.140625 -0.5 0.140625l-4.703125 0q-0.359375 0 -0.515625 -0.140625q-0.140625 -0.140625 -0.140625 -0.359375q0 -0.21875 0.140625 -0.359375q0.15625 -0.125 0.515625 -0.125l1.328125 0l0 -12.703125l-1.328125 0q-0.359375 0 -0.515625 -0.140625q-0.140625 -0.140625 -0.140625 -0.359375q0 -0.21875 0.140625 -0.359375q0.15625 -0.140625 0.515625 -0.140625l2.3125 0zm8.53125 4.78125q0 -1.703125 -1.25 -2.90625q-1.234375 -1.21875 -3.015625 -1.21875q-1.78125 0 -3.03125 1.21875q-1.234375 1.21875 -1.234375 2.90625q0 1.6875 1.234375 2.90625q1.25 1.21875 3.03125 1.21875q1.78125 0 3.015625 -1.203125q1.25 -1.21875 1.25 -2.921875zm5.3398438 4.390625l7.5625 0l0 -0.390625q0 -0.34375 0.140625 -0.5q0.140625 -0.15625 0.359375 -0.15625q0.203125 0 0.34375 0.15625q0.140625 0.15625 0.140625 0.5l0 1.375l-9.515625 0l0 -1.453125q3.0 -2.703125 5.84375 -5.484375q1.328125 -1.296875 1.8125 -1.90625q0.5 -0.609375 0.671875 -1.078125q0.1875 -0.46875 0.1875 -0.9375q0 -1.265625 -1.03125 -2.234375q-1.015625 -0.96875 -2.453125 -0.96875q-1.28125 0 -2.28125 0.734375q-1.0 0.734375 -1.296875 1.828125q-0.0625 0.28125 -0.171875 0.359375q-0.140625 0.125 -0.328125 0.125q-0.203125 0 -0.34375 -0.125q-0.125 -0.140625 -0.125 -0.328125q0 -0.5625 0.609375 -1.515625q0.625 -0.96875 1.703125 -1.515625q1.09375 -0.5625 2.21875 -0.5625q1.84375 0 3.171875 1.28125q1.328125 1.28125 1.328125 2.890625q0 0.6875 -0.234375 1.25q-0.21875 0.5625 -0.75 1.25q-0.53125 0.671875 -1.921875 2.03125q-3.46875 3.421875 -5.640625 5.296875l0 0.078125z" fill-rule="nonzero"/><path fill="#000000" fill-opacity="0.0" d="m603.98956 263.79834l-57.606323 -76.787415" fill-rule="evenodd"/><path stroke="#ff0000" stroke-width="3.0" stroke-linejoin="round" stroke-linecap="butt" d="m603.98956 263.79834l-46.804443 -62.388824" fill-rule="evenodd"/><path fill="#ff0000" stroke="#ff0000" stroke-width="3.0" stroke-linecap="butt" d="m561.1489 198.43587l-12.133789 -7.9167175l4.206238 13.863998z" fill-rule="evenodd"/><path fill="#000000" fill-opacity="0.0" d="m683.9527 313.1358l57.606262 76.787384" fill-rule="evenodd"/><path stroke="#ff0000" stroke-width="3.0" stroke-linejoin="round" stroke-linecap="butt" d="m683.9527 313.13577l46.804382 62.388824" fill-rule="evenodd"/><path fill="#ff0000" stroke="#ff0000" stroke-width="3.0" stroke-linecap="butt" d="m726.79333 378.49823l12.133728 7.916748l-4.206238 -13.864014z" fill-rule="evenodd"/><path fill="#000000" d="m1003.7424 252.96803l0 0c0 -25.170273 20.40448 -45.574814 45.574768 -45.574814l0 0c12.087158 0 23.679321 4.8016205 32.22632 13.3485565c8.546875 8.546936 13.348511 20.139053 13.348511 32.226257l0 0c0 25.170273 -20.404541 45.574783 -45.57483 45.574783l0 0c-25.170288 0 -45.574768 -20.40451 -45.574768 -45.574783z" fill-rule="evenodd"/><path fill="#ffffff" d="m1038.4148 251.35178l0 1.796875q0.875 -1.0625 1.875 -1.59375q1.015625 -0.546875 2.390625 -0.546875q1.453125 0 2.671875 0.6875q1.234375 0.671875 1.90625 1.890625q0.671875 1.203125 0.671875 2.546875q0 2.109375 -1.515625 3.625q-1.515625 1.5 -3.734375 1.5q-2.625 0 -4.265625 -2.140625l0 5.9375l2.390625 0q0.34375 0 0.5 0.125q0.15625 0.140625 0.15625 0.359375q0 0.21875 -0.15625 0.359375q-0.15625 0.140625 -0.5 0.140625l-4.703125 0q-0.359375 0 -0.515625 -0.140625q-0.140625 -0.140625 -0.140625 -0.359375q0 -0.21875 0.140625 -0.359375q0.15625 -0.125 0.515625 -0.125l1.328125 0l0 -12.703125l-1.328125 0q-0.359375 0 -0.515625 -0.140625q-0.140625 -0.140625 -0.140625 -0.359375q0 -0.21875 0.140625 -0.359375q0.15625 -0.140625 0.515625 -0.140625l2.3125 0zm8.53125 4.78125q0 -1.703125 -1.25 -2.90625q-1.234375 -1.21875 -3.015625 -1.21875q-1.78125 0 -3.03125 1.21875q-1.234375 1.21875 -1.234375 2.90625q0 1.6875 1.234375 2.90625q1.25 1.21875 3.03125 1.21875q1.78125 0 3.015625 -1.203125q1.25 -1.21875 1.25 -2.921875zm10.058594 -9.53125l0 13.921875l3.375 0q0.359375 0 0.5 0.140625q0.15625 0.125 0.15625 0.34375q0 0.21875 -0.15625 0.359375q-0.140625 0.140625 -0.5 0.140625l-7.734375 0q-0.34375 0 -0.5 -0.140625q-0.15625 -0.140625 -0.15625 -0.359375q0 -0.21875 0.15625 -0.34375q0.15625 -0.140625 0.5 -0.140625l3.375 0l0 -12.5625l-3.203125 1.0q-0.234375 0.078125 -0.34375 0.078125q-0.171875 0 -0.328125 -0.140625q-0.140625 -0.15625 -0.140625 -0.359375q0 -0.171875 0.109375 -0.328125q0.09375 -0.09375 0.390625 -0.1875l4.5 -1.421875z" fill-rule="nonzero"/><path fill="#0000ff" d="m1088.961 316.66397l0 0c0 -25.170258 20.404541 -45.5748 45.57483 -45.5748l0 0c12.08728 0 23.679321 4.8016357 32.22632 13.348572c8.546875 8.546936 13.348511 20.139038 13.348511 32.226227l0 0c0 25.170288 -20.404541 45.57483 -45.57483 45.57483l0 0c-25.170288 0 -45.57483 -20.404541 -45.57483 -45.57483z" fill-rule="evenodd"/><path fill="#ffffff" d="m1123.6335 315.04773l0 1.796875q0.875 -1.0625 1.875 -1.59375q1.015625 -0.546875 2.390625 -0.546875q1.453125 0 2.671875 0.6875q1.234375 0.671875 1.90625 1.890625q0.671875 1.203125 0.671875 2.546875q0 2.109375 -1.515625 3.625q-1.515625 1.5 -3.734375 1.5q-2.625 0 -4.265625 -2.140625l0 5.9375l2.390625 0q0.34375 0 0.5 0.125q0.15625 0.140625 0.15625 0.359375q0 0.21875 -0.15625 0.359375q-0.15625 0.140625 -0.5 0.140625l-4.703125 0q-0.359375 0 -0.515625 -0.140625q-0.140625 -0.140625 -0.140625 -0.359375q0 -0.21875 0.140625 -0.359375q0.15625 -0.125 0.515625 -0.125l1.328125 0l0 -12.703125l-1.328125 0q-0.359375 0 -0.515625 -0.140625q-0.140625 -0.140625 -0.140625 -0.359375q0 -0.21875 0.140625 -0.359375q0.15625 -0.140625 0.515625 -0.140625l2.3125 0zm8.53125 4.78125q0 -1.703125 -1.25 -2.90625q-1.234375 -1.21875 -3.015625 -1.21875q-1.78125 0 -3.03125 1.21875q-1.234375 1.21875 -1.234375 2.90625q0 1.6875 1.234375 2.90625q1.25 1.21875 3.03125 1.21875q1.78125 0 3.015625 -1.203125q1.25 -1.21875 1.25 -2.921875zm5.3398438 4.390625l7.5625 0l0 -0.390625q0 -0.34375 0.140625 -0.5q0.140625 -0.15625 0.359375 -0.15625q0.203125 0 0.34375 0.15625q0.140625 0.15625 0.140625 0.5l0 1.375l-9.515625 0l0 -1.453125q3.0 -2.703125 5.84375 -5.484375q1.328125 -1.296875 1.8125 -1.90625q0.5 -0.609375 0.671875 -1.078125q0.1875 -0.46875 0.1875 -0.9375q0 -1.265625 -1.03125 -2.234375q-1.015625 -0.96875 -2.453125 -0.96875q-1.28125 0 -2.28125 0.734375q-1.0 0.734375 -1.296875 1.828125q-0.0625 0.28125 -0.171875 0.359375q-0.140625 0.125 -0.328125 0.125q-0.203125 0 -0.34375 -0.125q-0.125 -0.140625 -0.125 -0.328125q0 -0.5625 0.609375 -1.515625q0.625 -0.96875 1.703125 -1.515625q1.09375 -0.5625 2.21875 -0.5625q1.84375 0 3.171875 1.28125q1.328125 1.28125 1.328125 2.890625q0 0.6875 -0.234375 1.25q-0.21875 0.5625 -0.75 1.25q-0.53125 0.671875 -1.921875 2.03125q-3.46875 3.421875 -5.640625 5.296875l0 0.078125z" fill-rule="nonzero"/><path fill="#000000" fill-opacity="0.0" d="m1048.8507 254.38176l-57.606323 -76.7874" fill-rule="evenodd"/><path stroke="#ff0000" stroke-width="3.0" stroke-linejoin="round" stroke-linecap="butt" d="m1048.8507 254.38176l-46.804382 -62.38881" fill-rule="evenodd"/><path fill="#ff0000" stroke="#ff0000" stroke-width="3.0" stroke-linecap="butt" d="m1006.0101 189.0193l-12.133789 -7.9167175l4.206238 13.863998z" fill-rule="evenodd"/><path fill="#000000" fill-opacity="0.0" d="m1136.661 319.4135l57.6062 76.787384" fill-rule="evenodd"/><path stroke="#ff0000" stroke-width="3.0" stroke-linejoin="round" stroke-linecap="butt" d="m1136.661 319.4135l46.80432 62.388824" fill-rule="evenodd"/><path fill="#ff0000" stroke="#ff0000" stroke-width="3.0" stroke-linecap="butt" d="m1179.5017 384.77597l12.133667 7.9167175l-4.2061768 -13.863983z" fill-rule="evenodd"/></g></svg>