<svg version="1.1" viewBox="0.0 0.0 1289.1653543307086 418.5459317585302" fill="none" stroke="none" stroke-linecap="square" stroke-miterlimit="10" xmlns:xlink="http://www.w3.org/1999/xlink" xmlns="http://www.w3.org/2000/svg"><clipPath id="p.0"><path d="m0 0l1289.1654 0l0 418.54593l-1289.1654 0l0 -418.54593z" clip-rule="nonzero"/></clipPath><g clip-path="url(#p.0)"><path fill="#000000" fill-opacity="0.0" d="m0 0l1289.1654 0l0 418.54593l-1289.1654 0z" fill-rule="evenodd"/><path fill="#000000" fill-opacity="0.0" d="m8.2021 9.0131235l392.31497 0l0 355.43307l-392.31497 0z" fill-rule="evenodd"/><path stroke="#000000" stroke-width="2.0" stroke-linejoin="round" stroke-linecap="butt" d="m8.2021 9.0131235l392.31497 0l0 355.43307l-392.31497 0z" fill-rule="evenodd"/><path fill="#000000" d="m96.30446 201.42397l0 0c0 -25.170273 20.404541 -45.5748 45.574814 -45.5748l0 0c12.087189 0 23.679306 4.8016205 32.226242 13.348541c8.546936 8.546936 13.3485565 20.139069 13.3485565 32.226257l0 0c0 25.170273 -20.404541 45.5748 -45.5748 45.5748l0 0c-25.170273 0 -45.574814 -20.404526 -45.574814 -45.5748z" fill-rule="evenodd"/><path fill="#000000" fill-opacity="0.0" d="m141.87927 203.44357l0 160.31497" fill-rule="evenodd"/><path stroke="#0000ff" stroke-width="3.0" stroke-linejoin="round" stroke-linecap="butt" stroke-dasharray="12.0,9.0" d="m141.87927 203.44357l0 160.31497" fill-rule="evenodd"/><path fill="#000000" fill-opacity="0.0" d="m146.43623 204.27484l0 66.834656" fill-rule="evenodd"/><path stroke="#ff0000" stroke-width="3.0" stroke-linejoin="round" stroke-linecap="butt" d="m146.43623 204.27483l0 48.834656" fill-rule="evenodd"/><path fill="#ff0000" stroke="#ff0000" stroke-width="3.0" stroke-linecap="butt" d="m141.48103 253.10948l4.9552 13.614304l4.955185 -13.614304z" fill-rule="evenodd"/><path fill="#000000" fill-opacity="0.0" d="m104.31164 280.81104l47.086617 0l0 48.472443l-47.086617 0z" fill-rule="evenodd"/><path fill="#0000ff" d="m130.36862 311.0385q-1.8125 2.09375 -3.796875 2.09375q-1.765625 0 -2.953125 -1.296875q-1.171875 -1.3125 -1.171875 -3.796875q0 -2.28125 0.921875 -4.15625q0.9375 -1.890625 2.34375 -2.828125q1.40625 -0.9375 2.8125 -0.9375q2.3125 0 3.5 2.25l1.40625 -6.703125l2.109375 0l-3.59375 17.1875l-1.953125 0l0.375 -1.8125zm-5.8125 -3.40625q0 1.296875 0.25 2.046875q0.265625 0.75 0.890625 1.25q0.625 0.5 1.484375 0.5q1.4375 0 2.609375 -1.5q1.578125 -1.984375 1.578125 -4.921875q0 -1.46875 -0.78125 -2.296875q-0.765625 -0.84375 -1.9375 -0.84375q-0.765625 0 -1.390625 0.34375q-0.625 0.34375 -1.25 1.15625q-0.609375 0.8125 -1.03125 2.0625q-0.421875 1.25 -0.421875 2.203125z" fill-rule="nonzero"/><path fill="#000000" fill-opacity="0.0" d="m137.56755 231.6261l47.08661 0l0 48.472443l-47.08661 0z" fill-rule="evenodd"/><path fill="#ff0000" d="m155.04836 263.6661l-2.03125 -12.453125l2.0625 0l1.0625 6.859375q0.171875 1.125 0.4375 3.671875q0.609375 -1.328125 1.546875 -3.03125l4.171875 -7.5l2.234375 0l-7.125 12.453125l-2.359375 0z" fill-rule="nonzero"/><path fill="#ff0000" d="m163.11086 275.86923l0.09375 -1.328125q0.4375 0.125 0.84375 0.125q0.4375 0 0.703125 -0.1875q0.34375 -0.265625 0.75 -0.96875l0.453125 -0.8125l-1.390625 -8.328125l1.390625 0l0.625 4.1875q0.1875 1.25 0.328125 2.484375l3.703125 -6.671875l1.484375 0l-5.296875 9.40625q-0.765625 1.375 -1.359375 1.8125q-0.59375 0.453125 -1.359375 0.453125q-0.5 0 -0.96875 -0.171875z" fill-rule="nonzero"/><path fill="#000000" fill-opacity="0.0" d="m144.89711 203.4455l-35.244095 30.204727" fill-rule="evenodd"/><path stroke="#00ff00" stroke-width="3.0" stroke-linejoin="round" stroke-linecap="butt" d="m144.89711 203.4455l-35.244095 30.204727" fill-rule="evenodd"/><path fill="#000000" fill-opacity="0.0" d="m91.34961 187.849l47.086624 0l0 48.472443l-47.086624 0z" fill-rule="evenodd"/><path fill="#00ff00" d="m111.6937 219.88899l2.609375 -12.453125l1.875 0l-0.53125 2.546875q0.953125 -1.4375 1.875 -2.125q0.921875 -0.703125 1.890625 -0.703125q0.625 0 1.546875 0.46875l-0.859375 1.96875q-0.546875 -0.40625 -1.203125 -0.40625q-1.125 0 -2.296875 1.25q-1.171875 1.234375 -1.828125 4.453125l-1.0625 5.0l-2.015625 0z" fill-rule="nonzero"/><path fill="#000000" fill-opacity="0.0" d="m148.07611 358.12335l112.566925 0l0 58.17325l-112.566925 0z" fill-rule="evenodd"/><path fill="#000000" d="m189.34396 395.54648l-0.46875 2.3125q-1.015625 0.265625 -1.96875 0.265625q-1.6875 0 -2.6875 -0.828125q-0.75 -0.625 -0.75 -1.703125q0 -0.546875 0.40625 -2.515625l2.015625 -9.640625l-2.234375 0l0.453125 -2.1875l2.234375 0l0.859375 -4.078125l3.234375 -1.953125l-1.265625 6.03125l2.78125 0l-0.46875 2.1875l-2.765625 0l-1.921875 9.171875q-0.359375 1.75 -0.359375 2.09375q0 0.5 0.28125 0.765625q0.296875 0.265625 0.953125 0.265625q0.9375 0 1.671875 -0.1875z" fill-rule="nonzero"/><path fill="#000000" d="m207.46896 384.3746l-15.125 0l0 -2.625l15.125 0l0 2.625zm0 6.953125l-15.125 0l0 -2.625l15.125 0l0 2.625zm3.109375 -4.78125q0 -4.0625 0.828125 -6.53125q0.84373474 -2.484375 2.4843597 -3.828125q1.65625 -1.34375 4.15625 -1.34375q1.84375 0 3.234375 0.75q1.390625 0.734375 2.296875 2.140625q0.90625 1.390625 1.421875 3.40625q0.515625 2.0 0.515625 5.40625q0 4.03125 -0.828125 6.515625q-0.828125 2.46875 -2.484375 3.828125q-1.640625 1.34375 -4.15625 1.34375q-3.3125 0 -5.203125 -2.375q-2.2656097 -2.859375 -2.2656097 -9.3125zm2.8906097 0q0 5.640625 1.3125 7.515625q1.328125 1.859375 3.265625 1.859375q1.9375 0 3.25 -1.875q1.328125 -1.875 1.328125 -7.5q0 -5.65625 -1.328125 -7.515625q-1.3125 -1.859375 -3.28125 -1.859375q-1.9375 0 -3.09375 1.640625q-1.453125 2.09375 -1.453125 7.734375z" fill-rule="nonzero"/><path fill="#000000" fill-opacity="0.0" d="m448.2021 9.0131235l392.315 0l0 355.43307l-392.315 0z" fill-rule="evenodd"/><path stroke="#000000" stroke-width="2.0" stroke-linejoin="round" stroke-linecap="butt" d="m448.2021 9.0131235l392.315 0l0 355.43307l-392.315 0z" fill-rule="evenodd"/><path fill="#000000" d="m536.30444 317.8692l0 0c0 -25.170258 20.404541 -45.5748 45.57483 -45.5748l0 0c12.087158 0 23.679321 4.8016357 32.226257 13.348541c8.546936 8.546936 13.348511 20.139069 13.348511 32.226257l0 0c0 25.170288 -20.40448 45.5748 -45.574768 45.5748l0 0c-25.170288 0 -45.57483 -20.40451 -45.57483 -45.5748z" fill-rule="evenodd"/><path fill="#000000" fill-opacity="0.0" d="m586.4362 315.84915l0 -66.83464" fill-rule="evenodd"/><path stroke="#ff0000" stroke-width="3.0" stroke-linejoin="round" stroke-linecap="butt" d="m586.4362 315.84915l0 -48.834625" fill-rule="evenodd"/><path fill="#ff0000" stroke="#ff0000" stroke-width="3.0" stroke-linecap="butt" d="m591.3914 267.01453l-4.9552 -13.614304l-4.9552 13.614304z" fill-rule="evenodd"/><path fill="#000000" fill-opacity="0.0" d="m583.1977 232.81102l47.08661 0l0 48.472458l-47.08661 0z" fill-rule="evenodd"/><path fill="#ff0000" d="m593.8543 259.69476l0.453125 -2.125l6.46875 0l-0.4375 2.125l-6.484375 0zm10.8203125 5.15625l-2.03125 -12.45311l2.0625 0l1.0625 6.8593597q0.171875 1.125 0.4375 3.671875q0.609375 -1.328125 1.546875 -3.03125l4.171875 -7.4999847l2.234375 0l-7.125 12.45311l-2.359375 0z" fill-rule="nonzero"/><path fill="#ff0000" d="m612.7371 277.05414l0.09375 -1.328125q0.4375 0.125 0.84375 0.125q0.4375 0 0.703125 -0.1875q0.34375 -0.265625 0.75 -0.96875l0.453125 -0.8125l-1.390625 -8.328125l1.390625 0l0.625 4.1875q0.1875 1.25 0.328125 2.484375l3.703125 -6.671875l1.484375 0l-5.296875 9.40625q-0.765625 1.375 -1.359375 1.8125q-0.59375 0.453125 -1.359375 0.453125q-0.5 0 -0.96875 -0.171875z" fill-rule="nonzero"/><path fill="#000000" fill-opacity="0.0" d="m568.6102 358.12335l151.4961 0l0 58.17325l-151.4961 0z" fill-rule="evenodd"/><path fill="#000000" d="m590.2528 395.54648l-0.46875 2.3125q-1.015625 0.265625 -1.96875 0.265625q-1.6875 0 -2.6875 -0.828125q-0.75 -0.625 -0.75 -1.703125q0 -0.546875 0.40625 -2.515625l2.015625 -9.640625l-2.234375 0l0.453125 -2.1875l2.234375 0l0.859375 -4.078125l3.234375 -1.953125l-1.265625 6.03125l2.78125 0l-0.46875 2.1875l-2.765625 0l-1.921875 9.171875q-0.359375 1.75 -0.359375 2.09375q0 0.5 0.28125 0.765625q0.296875 0.265625 0.953125 0.265625q0.9375 0 1.671875 -0.1875z" fill-rule="nonzero"/><path fill="#000000" d="m608.3778 384.3746l-15.125 0l0 -2.625l15.125 0l0 2.625zm0 6.953125l-15.125 0l0 -2.625l15.125 0l0 2.625zm9.265625 13.25q-2.328125 -2.9375 -3.9375 -6.875q-1.609375 -3.9375 -1.609375 -8.15625q0 -3.71875 1.203125 -7.125q1.40625 -3.953125 4.34375 -7.875l2.015625 0q-1.890625 3.25 -2.5 4.640625q-0.953125 2.15625 -1.5 4.5q-0.671875 2.921875 -0.671875 5.875q0 7.515625 4.671875 15.015625l-2.015625 0z" fill-rule="nonzero"/><path fill="#000000" d="m633.0653 395.4371q-2.421875 2.78125 -5.0625 2.78125q-2.359375 0 -3.9375 -1.734375q-1.5625 -1.75 -1.5625 -5.0625q0 -3.03125 1.234375 -5.53125q1.25 -2.515625 3.109375 -3.765625q1.875 -1.25 3.75 -1.25q3.09375 0 4.671875 2.984375l1.875 -8.921875l2.8125 0l-4.78125 22.90625l-2.609375 0l0.5 -2.40625zm-7.75 -4.546875q0 1.734375 0.34375 2.734375q0.34375 1.0 1.171875 1.671875q0.828125 0.65625 1.984375 0.65625q1.921875 0 3.484375 -2.0q2.09375 -2.65625 2.09375 -6.5625q0 -1.96875 -1.03125 -3.078125q-1.03125 -1.109375 -2.59375 -1.109375q-1.015625 0 -1.859375 0.453125q-0.828125 0.453125 -1.65625 1.546875q-0.8125 1.078125 -1.375 2.75q-0.5625 1.671875 -0.5625 2.9375z" fill-rule="nonzero"/><path fill="#000000" d="m639.6278 390.96835l0 -2.828125l8.640625 0l0 2.828125l-8.640625 0z" fill-rule="nonzero"/><path fill="#000000" d="m650.33093 397.84335l3.46875 -16.59375l2.5 0l-0.703125 3.390625q1.28125 -1.921875 2.5 -2.84375q1.234375 -0.921875 2.515625 -0.921875q0.84375 0 2.078125 0.609375l-1.15625 2.625q-0.734375 -0.53125 -1.609375 -0.53125q-1.484375 0 -3.046875 1.65625q-1.5625 1.65625 -2.453125 5.953125l-1.40625 6.65625l-2.6875 0z" fill-rule="nonzero"/><path fill="#000000" d="m663.8778 404.57773l-2.015625 0q4.671875 -7.5 4.671875 -15.015625q0 -2.9375 -0.671875 -5.828125q-0.53125 -2.34375 -1.484375 -4.5q-0.609375 -1.40625 -2.515625 -4.6875l2.015625 0q2.9375 3.921875 4.34375 7.875q1.203125 3.40625 1.203125 7.125q0 4.21875 -1.625 8.15625q-1.609375 3.9375 -3.921875 6.875zm6.703125 -6.34375l6.640625 -23.6875l2.25 0l-6.625 23.6875l-2.265625 0z" fill-rule="nonzero"/><path fill="#000000" d="m684.72156 397.84335l-2.71875 -16.59375l2.75 0l1.421875 9.140625q0.234375 1.5 0.578125 4.890625q0.8125 -1.765625 2.078125 -4.046875l5.546875 -9.984375l2.984375 0l-9.5 16.59375l-3.140625 0z" fill-rule="nonzero"/><path fill="#000000" d="m695.47156 414.10898l0.109375 -1.765625q0.59375 0.171875 1.140625 0.171875q0.578125 0 0.921875 -0.265625q0.46875 -0.34375 1.0 -1.296875l0.609375 -1.078125l-1.84375 -11.09375l1.859375 0l0.828125 5.59375q0.25 1.65625 0.421875 3.3125l4.953125 -8.90625l1.96875 0l-7.046875 12.53125q-1.03125 1.828125 -1.828125 2.421875q-0.78125 0.59375 -1.8125 0.59375q-0.65625 0 -1.28125 -0.21875z" fill-rule="nonzero"/><path fill="#000000" fill-opacity="0.0" d="m888.2021 9.0131235l392.315 0l0 355.43307l-392.315 0z" fill-rule="evenodd"/><path stroke="#000000" stroke-width="2.0" stroke-linejoin="round" stroke-linecap="butt" d="m888.2021 9.0131235l392.315 0l0 355.43307l-392.315 0z" fill-rule="evenodd"/><path fill="#000000" d="m976.30444 201.42397l0 0c0 -25.170273 20.404541 -45.5748 45.57483 -45.5748l0 0c12.087158 0 23.679321 4.8016205 32.226196 13.348541c8.546997 8.546936 13.348633 20.139069 13.348633 32.226257l0 0c0 25.170273 -20.404541 45.5748 -45.57483 45.5748l0 0c-25.170288 0 -45.57483 -20.404526 -45.57483 -45.5748z" fill-rule="evenodd"/><path fill="#000000" fill-opacity="0.0" d="m1026.4363 203.84917l0 -66.834656" fill-rule="evenodd"/><path stroke="#ff0000" stroke-width="3.0" stroke-linejoin="round" stroke-linecap="butt" d="m1026.4362 203.84917l0 -48.834656" fill-rule="evenodd"/><path fill="#ff0000" stroke="#ff0000" stroke-width="3.0" stroke-linecap="butt" d="m1031.3914 155.01451l-4.9552 -13.614288l-4.955139 13.614288z" fill-rule="evenodd"/><path fill="#000000" fill-opacity="0.0" d="m1023.1977 120.81102l47.08661 0l0 48.472443l-47.08661 0z" fill-rule="evenodd"/><path fill="#ff0000" d="m1033.8542 147.69478l0.453125 -2.125l6.46875 0l-0.4375 2.125l-6.484375 0zm10.8203125 5.15625l-2.03125 -12.453125l2.0625 0l1.0625 6.859375q0.171875 1.125 0.4375 3.671875q0.609375 -1.328125 1.546875 -3.03125l4.171875 -7.5l2.234375 0l-7.125 12.453125l-2.359375 0z" fill-rule="nonzero"/><path fill="#ff0000" d="m1052.737 165.05415l0.09375 -1.328125q0.4375 0.125 0.84375 0.125q0.4375 0 0.703125 -0.1875q0.34375 -0.265625 0.75 -0.96875l0.453125 -0.8125l-1.390625 -8.328125l1.390625 0l0.625 4.1875q0.1875 1.25 0.328125 2.484375l3.703125 -6.671875l1.484375 0l-5.296875 9.40625q-0.765625 1.375 -1.359375 1.8125q-0.59375 0.453125 -1.359375 0.453125q-0.5 0 -0.96875 -0.171875z" fill-rule="nonzero"/><path fill="#000000" fill-opacity="0.0" d="m1001.79266 358.12335l165.13385 0l0 58.17325l-165.13385 0z" fill-rule="evenodd"/><path fill="#000000" d="m1064.9065 395.54648l-0.46875 2.3125q-1.015625 0.265625 -1.96875 0.265625q-1.6875 0 -2.6875 -0.828125q-0.75 -0.625 -0.75 -1.703125q0 -0.546875 0.40625 -2.515625l2.015625 -9.640625l-2.234375 0l0.453125 -2.1875l2.234375 0l0.859375 -4.078125l3.234375 -1.953125l-1.265625 6.03125l2.78125 0l-0.46875 2.1875l-2.765625 0l-1.921875 9.171875q-0.359375 1.75 -0.359375 2.09375q0 0.5 0.28125 0.765625q0.296875 0.265625 0.953125 0.265625q0.9375 0 1.671875 -0.1875z" fill-rule="nonzero"/><path fill="#000000" d="m1083.0315 384.3746l-15.125 0l0 -2.625l15.125 0l0 2.625zm0 6.953125l-15.125 0l0 -2.625l15.125 0l0 2.625zm4.6875 6.515625l0 -3.203125l3.203125 0l0 3.203125l-3.203125 0zm8.890625 0l0 -3.203125l3.203125 0l0 3.203125l-3.203125 0zm8.890625 0l0 -3.203125l3.203125 0l0 3.203125l-3.203125 0z" fill-rule="nonzero"/></g></svg>