<?xml version="1.0" standalone="yes"?>

<svg version="1.1" viewBox="0.0 0.0 571.3280839895014 650.5643044619422" fill="none" stroke="none" stroke-linecap="square" stroke-miterlimit="10" xmlns="http://www.w3.org/2000/svg" xmlns:xlink="http://www.w3.org/1999/xlink"><clipPath id="p.0"><path d="m0 0l571.32806 0l0 650.56433l-571.32806 0l0 -650.56433z" clip-rule="nonzero"></path></clipPath><g clip-path="url(#p.0)"><path fill="#000000" fill-opacity="0.0" d="m0 0l571.32806 0l0 650.56433l-571.32806 0z" fill-rule="evenodd"></path><path fill="#000000" fill-opacity="0.0" d="m88.57743 10.603675l365.13385 0l0 89.98425l-365.13385 0z" fill-rule="evenodd"></path><path fill="#000000" d="m108.811806 29.5893l0 17.531252l3.234375 0q1.15625 0 1.640625 0.453125q0.5 0.4375 0.5 1.15625q0 0.703125 -0.5 1.15625q-0.484375 0.4375 -1.640625 0.4375l-9.671875 0q-1.15625 0 -1.65625 -0.4375q-0.484375 -0.453125 -0.484375 -1.171875q0 -0.703125 0.484375 -1.140625q0.5 -0.453125 1.65625 -0.453125l3.234375 0l0 -13.359375l-2.859375 0.75q-0.6875 0.1875 -1.03125 0.1875q-0.609375 0 -1.0625 -0.484375q-0.4375 -0.484375 -0.4375 -1.1875q0 -0.640625 0.328125 -1.0q0.328125 -0.3750019 1.375 -0.6562519l6.890625 -1.78125zm24.562492 8.843752l0 3.515625q0 3.125 -1.8125 5.984375q-1.796875 2.859375 -5.1562424 2.859375q-1.9375 0 -3.28125 -0.84375q-1.328125 -0.859375 -2.53125 -3.140625q-1.1875 -2.296875 -1.1875 -4.859375l0 -3.515625q0 -3.109375 1.796875 -5.96875q1.796875 -2.875002 5.15625 -2.875002q1.9218674 0 3.2499924 0.84375q1.34375 0.84375 2.546875 3.140627q1.21875 2.28125 1.21875 4.859375zm-3.21875 0q0 -2.609375 -1.453125 -4.5625q-0.8281174 -1.078125 -2.3281174 -1.078125q-1.453125 0 -2.375 1.1875q-1.390625 1.796875 -1.390625 4.453125l0 3.515625q0 2.625 1.46875 4.5625q0.8125 1.078125 2.328125 1.078125q1.4375 0 2.3593674 -1.1875q1.390625 -1.796875 1.390625 -4.453125l0 -3.515625zm12.8125 -0.234375l-2.765625 -0.890625q-0.984375 -0.3125 -1.25 -0.671875q-0.375 -0.453125 -0.375 -1.015625q0 -0.65625 0.453125 -1.125q0.46875 -0.484375 1.046875 -0.484375q0.375 0 1.109375 0.25l2.765625 0.890625l0 -2.90625q0 -1.1562519 0.4375 -1.6406269q0.453125 -0.5 1.171875 -0.5q0.71875 0 1.15625 0.5q0.4375 0.484375 0.4375 1.6406269l0 2.90625l2.765625 -0.890625q0.75 -0.25 1.09375 -0.25q0.59375 0 1.046875 0.46875q0.46875 0.46875 0.46875 1.125q0 0.578125 -0.328125 0.984375q-0.3125 0.390625 -1.28125 0.71875l-2.765625 0.890625l1.703125 2.359375q0.625 0.859375 0.625 1.359375q0 0.671875 -0.46875 1.140625q-0.46875 0.46875 -1.125 0.46875q-0.484375 0 -0.8125 -0.203125q-0.3125 -0.203125 -0.8125 -0.890625l-1.703125 -2.34375l-1.71875 2.34375q-0.484375 0.6875 -0.8125 0.90625q-0.328125 0.203125 -0.796875 0.203125q-0.65625 0 -1.140625 -0.46875q-0.46875 -0.484375 -0.46875 -1.171875q0 -0.484375 0.625 -1.34375l1.71875 -2.359375zm24.21875 4.75l4.859375 4.171875q0.875 0.046875 1.3125 0.5q0.4375 0.4375 0.4375 1.109375q0 0.703125 -0.5 1.15625q-0.484375 0.4375 -1.640625 0.4375l-3.640625 0q-1.15625 0 -1.65625 -0.4375q-0.484375 -0.453125 -0.484375 -1.1875q0 -0.5625 0.34375 -0.984375q0.359375 -0.4375 0.96875 -0.59375l-2.390625 -2.0625l-2.4375 2.0625q0.734375 0.1875 1.046875 0.578125q0.328125 0.390625 0.328125 1.0q0 0.734375 -0.484375 1.1875q-0.484375 0.4375 -1.640625 0.4375l-3.609375 0q-1.15625 0 -1.65625 -0.4375q-0.484375 -0.453125 -0.484375 -1.171875q0 -0.65625 0.4375 -1.09375q0.4375 -0.453125 1.3125 -0.5l4.75 -4.1875l-4.203125 -3.59375q-0.828125 -0.0625 -1.265625 -0.5q-0.421875 -0.453125 -0.421875 -1.109375q0 -0.703125 0.484375 -1.140625q0.5 -0.453125 1.65625 -0.453125l3.0 0q1.15625 0 1.640625 0.453125q0.5 0.4375 0.5 1.125q0 0.921875 -0.875 1.5l1.9375 1.609375l1.90625 -1.640625q-0.859375 -0.609375 -0.859375 -1.40625q0 -0.75 0.484375 -1.1875q0.5 -0.453125 1.65625 -0.453125l2.96875 0q1.15625 0 1.640625 0.453125q0.5 0.4375 0.5 1.15625q0 0.640625 -0.4375 1.09375q-0.421875 0.4375 -1.265625 0.5l-4.21875 3.609375zm14.1875 -4.75l-2.765625 -0.890625q-0.984375 -0.3125 -1.25 -0.671875q-0.375 -0.453125 -0.375 -1.015625q0 -0.65625 0.453125 -1.125q0.46875 -0.484375 1.046875 -0.484375q0.375 0 1.109375 0.25l2.765625 0.890625l0 -2.90625q0 -1.1562519 0.4375 -1.6406269q0.453125 -0.5 1.171875 -0.5q0.71875 0 1.15625 0.5q0.4375 0.484375 0.4375 1.6406269l0 2.90625l2.765625 -0.890625q0.75 -0.25 1.09375 -0.25q0.59375 0 1.046875 0.46875q0.46875 0.46875 0.46875 1.125q0 0.578125 -0.328125 0.984375q-0.3125 0.390625 -1.28125 0.71875l-2.765625 0.890625l1.703125 2.359375q0.625 0.859375 0.625 1.359375q0 0.671875 -0.46875 1.140625q-0.46875 0.46875 -1.125 0.46875q-0.484375 0 -0.8125 -0.203125q-0.3125 -0.203125 -0.8125 -0.890625l-1.703125 -2.34375l-1.71875 2.34375q-0.484375 0.6875 -0.8125 0.90625q-0.328125 0.203125 -0.796875 0.203125q-0.65625 0 -1.140625 -0.46875q-0.46875 -0.484375 -0.46875 -1.171875q0 -0.484375 0.625 -1.34375l1.71875 -2.359375zm20.09375 8.921875l5.625 0q0.046875 -0.890625 0.484375 -1.328125q0.453125 -0.453125 1.109375 -0.453125q0.71875 0 1.15625 0.5q0.453125 0.484375 0.453125 1.640625l0 2.84375l-13.9375 0l0 -2.65625l8.4375 -8.328125l-4.90625 0l0 0.3125q0 1.140625 -0.453125 1.640625q-0.4375 0.484375 -1.15625 0.484375q-0.71875 0 -1.171875 -0.484375q-0.4375 -0.5 -0.4375 -1.640625l0.015625 -3.515625l13.25 0l0 2.625l-8.46875 8.359375zm41.734375 -4.296875l0 5.359375q0 1.15625 -0.4375 1.65625q-0.4375 0.484375 -1.15625 0.484375q-0.71875 0 -1.171875 -0.484375q-0.4375 -0.5 -0.4375 -1.65625l0 -5.359375l-4.578125 0q-1.15625 0 -1.65625 -0.4375q-0.484375 -0.453125 -0.484375 -1.171875q0 -0.71875 0.484375 -1.15625q0.5 -0.453125 1.65625 -0.4375l4.578125 0l0 -5.34375q0 -1.140625 0.4375 -1.640625q0.453125 -0.5 1.171875 -0.5q0.71875 0 1.15625 0.5q0.453125 0.484375 0.453125 1.640625l-0.015625 5.34375l4.578125 0q1.15625 0 1.640625 0.4375q0.5 0.4375 0.5 1.15625q0 0.71875 -0.5 1.171875q-0.484375 0.4375 -1.640625 0.4375l-4.578125 0zm33.8125 4.296875l7.015625 0q0.578125 -0.46875 1.09375 -0.46875q0.734375 0 1.15625 0.484375q0.4375 0.484375 0.4375 1.65625l0 1.53125l-14.59375 0l0 -3.390625q8.65625 -7.140625 10.453125 -9.1875q0.90625 -1.046875 0.90625 -1.984375q0 -1.171875 -1.03125 -2.0625q-1.015625 -0.90625 -2.71875 -0.90625q-1.71875 0 -2.859375 1.0q-0.59375 0.53125 -0.953125 1.578125q-0.21875 0.65625 -0.609375 0.9375q-0.375 0.28125 -0.9375 0.28125q-0.65625 0 -1.140625 -0.46875q-0.46875 -0.46875 -0.46875 -1.09375q0 -0.9375 0.859375 -2.34375q0.875 -1.4062519 2.53125 -2.250002q1.671875 -0.84375 3.625 -0.84375q3.03125 0 4.96875 1.84375q1.9375 1.8281269 1.9375 4.437502q0 1.328125 -0.5625 2.46875q-0.546875 1.125 -2.65625 3.125q-1.65625 1.578125 -6.453125 5.65625zm19.578125 -8.921875l-2.765625 -0.890625q-0.984375 -0.3125 -1.25 -0.671875q-0.375 -0.453125 -0.375 -1.015625q0 -0.65625 0.453125 -1.125q0.46875 -0.484375 1.046875 -0.484375q0.375 0 1.109375 0.25l2.765625 0.890625l0 -2.90625q0 -1.1562519 0.4375 -1.6406269q0.453125 -0.5 1.171875 -0.5q0.71875 0 1.15625 0.5q0.4375 0.484375 0.4375 1.6406269l0 2.90625l2.765625 -0.890625q0.75 -0.25 1.09375 -0.25q0.59375 0 1.046875 0.46875q0.46875 0.46875 0.46875 1.125q0 0.578125 -0.328125 0.984375q-0.3125 0.390625 -1.28125 0.71875l-2.765625 0.890625l1.703125 2.359375q0.625 0.859375 0.625 1.359375q0 0.671875 -0.46875 1.140625q-0.46875 0.46875 -1.125 0.46875q-0.484375 0 -0.8125 -0.203125q-0.3125 -0.203125 -0.8125 -0.890625l-1.703125 -2.34375l-1.71875 2.34375q-0.484375 0.6875 -0.8125 0.90625q-0.328125 0.203125 -0.796875 0.203125q-0.65625 0 -1.140625 -0.46875q-0.46875 -0.484375 -0.46875 -1.171875q0 -0.484375 0.625 -1.34375l1.71875 -2.359375zm20.671875 4.34375q0 -2.734375 0.90625 -5.53125q0.671875 -2.0625 2.078125 -4.59375q1.015625 -1.8125019 1.5 -2.218752q0.484375 -0.421875 1.078125 -0.421875q0.6875 0 1.15625 0.46875q0.46875 0.46875 0.46875 1.125q0 0.453125 -0.375 1.0781269q-1.6875 2.765625 -2.46875 5.1875q-0.765625 2.421875 -0.765625 4.90625q0 2.5 0.765625 4.921875q0.78125 2.421875 2.46875 5.1875q0.375 0.609375 0.375 1.078125q0 0.65625 -0.46875 1.125q-0.46875 0.46875 -1.15625 0.46875q-0.578125 0 -1.015625 -0.375q-0.625 -0.546875 -1.65625 -2.453125q-1.484375 -2.765625 -2.03125 -4.5625q-0.859375 -2.75 -0.859375 -5.390625zm21.984375 -12.953127l0 17.531252l3.234375 0q1.15625 0 1.640625 0.453125q0.5 0.4375 0.5 1.15625q0 0.703125 -0.5 1.15625q-0.484375 0.4375 -1.640625 0.4375l-9.671875 0q-1.15625 0 -1.65625 -0.4375q-0.484375 -0.453125 -0.484375 -1.171875q0 -0.703125 0.484375 -1.140625q0.5 -0.453125 1.65625 -0.453125l3.234375 0l0 -13.359375l-2.859375 0.75q-0.6875 0.1875 -1.03125 0.1875q-0.609375 0 -1.0625 -0.484375q-0.4375 -0.484375 -0.4375 -1.1875q0 -0.640625 0.328125 -1.0q0.328125 -0.3750019 1.375 -0.6562519l6.890625 -1.78125zm14.875 3.718752l0 3.8125q1.78125 -0.5625 3.234375 -0.5625q2.953125 0 4.90625 2.015625q1.953125 2.015625 1.953125 5.203125q0 3.28125 -1.984375 5.15625q-1.96875 1.859375 -6.046875 1.859375q-3.59375 0 -5.6875 -1.359375q-1.21875 -0.78125 -1.21875 -1.796875q0 -0.640625 0.46875 -1.109375q0.484375 -0.484375 1.140625 -0.484375q0.546875 0 1.1875 0.53125q0.640625 0.515625 1.34375 0.71875q1.0 0.296875 2.5625 0.296875q2.90625 0 3.96875 -0.921875q1.0625 -0.9375 1.0625 -2.859375q0 -1.890625 -1.03125 -2.96875q-1.015625 -1.078125 -2.625 -1.078125q-1.734375 0 -3.953125 1.125q-0.5 0.265625 -0.875 0.265625q-0.6875 0 -1.15625 -0.5q-0.453125 -0.5 -0.453125 -1.296875l0 -9.250002l9.796875 0q1.15625 0 1.640625 0.453125q0.5 0.4375 0.5 1.15625q0 0.7031269 -0.5 1.1562519q-0.484375 0.4375 -1.640625 0.4375l-6.59375 0zm23.5 9.515625l0 5.359375q0 1.15625 -0.4375 1.65625q-0.4375 0.484375 -1.15625 0.484375q-0.71875 0 -1.171875 -0.484375q-0.4375 -0.5 -0.4375 -1.65625l0 -5.359375l-4.578125 0q-1.15625 0 -1.65625 -0.4375q-0.484375 -0.453125 -0.484375 -1.171875q0 -0.71875 0.484375 -1.15625q0.5 -0.453125 1.65625 -0.4375l4.578125 0l0 -5.34375q0 -1.140625 0.4375 -1.640625q0.453125 -0.5 1.171875 -0.5q0.71875 0 1.15625 0.5q0.453125 0.484375 0.453125 1.640625l-0.015625 5.34375l4.578125 0q1.15625 0 1.640625 0.4375q0.5 0.4375 0.5 1.15625q0 0.71875 -0.5 1.171875q-0.484375 0.4375 -1.640625 0.4375l-4.578125 0zm15.8125 7.390625l-5.546875 -10.875q-0.78125 -0.09375 -1.1875 -0.53125q-0.40625 -0.4375 -0.40625 -1.0625q0 -0.71875 0.484375 -1.15625q0.5 -0.453125 1.65625 -0.453125l2.921875 0q1.15625 0 1.640625 0.453125q0.5 0.4375 0.5 1.15625q0 0.703125 -0.5 1.15625q-0.484375 0.4375 -1.546875 0.4375l3.78125 7.359375l3.75 -7.359375q-1.03125 0 -1.53125 -0.4375q-0.484375 -0.453125 -0.484375 -1.171875q0 -0.703125 0.484375 -1.140625q0.5 -0.453125 1.65625 -0.453125l3.015625 0q1.140625 0 1.625 0.453125q0.5 0.4375 0.5 1.15625q0 0.640625 -0.421875 1.09375q-0.421875 0.4375 -1.25 0.5l-7.34375 14.46875q1.203125 0 1.578125 0.234375q0.75 0.484375 0.75 1.375q0 0.703125 -0.5 1.140625q-0.484375 0.453125 -1.640625 0.453125l-6.984375 0q-1.15625 0 -1.65625 -0.453125q-0.484375 -0.4375 -0.484375 -1.140625q0 -0.71875 0.484375 -1.171875q0.5 -0.4375 1.65625 -0.4375l3.1875 0l1.8125 -3.59375zm22.359375 -7.671875q0 2.734375 -0.90625 5.546875q-0.671875 2.0625 -2.078125 4.578125q-1.015625 1.8125 -1.5 2.234375q-0.484375 0.421875 -1.078125 0.421875q-0.6875 0 -1.15625 -0.46875q-0.46875 -0.46875 -0.46875 -1.125q0 -0.46875 0.375 -1.078125q1.6875 -2.765625 2.453125 -5.1875q0.78125 -2.421875 0.78125 -4.921875q0 -2.484375 -0.78125 -4.90625q-0.765625 -2.421875 -2.453125 -5.1875q-0.375 -0.6250019 -0.375 -1.0781269q0 -0.65625 0.46875 -1.125q0.46875 -0.46875 1.15625 -0.46875q0.578125 0 1.015625 0.375q0.625 0.53125 1.65625 2.453127q1.484375 2.765625 2.03125 4.546875q0.859375 2.765625 0.859375 5.390625z" fill-rule="nonzero"></path><path fill="#cfe2f3" d="m9.973753 365.40176l0 0c0 -4.8677673 3.946084 -8.813843 8.813826 -8.813843l40.3881 0c2.3375702 0 4.579399 0.92858887 6.2323112 2.5815125c1.652916 1.6529236 2.5815125 3.8947449 2.5815125 6.2323303l0 35.254242c0 4.867737 -3.946083 8.813812 -8.813824 8.813812l-40.3881 0c-4.8677416 0 -8.813826 -3.9460754 -8.813826 -8.813812z" fill-rule="evenodd"></path><path stroke="#000000" stroke-width="2.0" stroke-linejoin="round" stroke-linecap="butt" d="m9.973753 365.40176l0 0c0 -4.8677673 3.946084 -8.813843 8.813826 -8.813843l40.3881 0c2.3375702 0 4.579399 0.92858887 6.2323112 2.5815125c1.652916 1.6529236 2.5815125 3.8947449 2.5815125 6.2323303l0 35.254242c0 4.867737 -3.946083 8.813812 -8.813824 8.813812l-40.3881 0c-4.8677416 0 -8.813826 -3.9460754 -8.813826 -8.813812z" fill-rule="evenodd"></path><path fill="#000000" d="m35.087097 391.56888l-3.296875 0l0 -12.40625q-1.8125 1.6875 -4.25 2.484375l0 -2.984375q1.28125 -0.421875 2.796875 -1.59375q1.515625 -1.1875 2.078125 -2.75l2.671875 0l0 17.25zm10.488277 -17.25q2.484375 0 3.890625 1.78125q1.6875 2.109375 1.6875 7.0q0 4.875 -1.6875 7.0q-1.40625 1.765625 -3.890625 1.765625q-2.5156212 0 -4.046871 -1.921875q-1.53125 -1.9375 -1.53125 -6.890625q0 -4.84375 1.6875 -6.984375q1.390625 -1.75 3.8906212 -1.75zm0 2.734375q-0.609375 0 -1.0781212 0.375q-0.46875 0.375 -0.71875 1.359375q-0.34375 1.28125 -0.34375 4.3125q0 3.015625 0.296875 4.15625q0.3125 1.125 0.765625 1.5q0.4687462 0.375 1.0781212 0.375q0.59375 0 1.0625 -0.375q0.46875 -0.390625 0.71875 -1.375q0.34375 -1.265625 0.34375 -4.28125q0 -3.03125 -0.3125 -4.15625q-0.296875 -1.140625 -0.765625 -1.515625q-0.453125 -0.375 -1.046875 -0.375z" fill-rule="nonzero"></path><path fill="#cfe2f3" d="m89.973755 365.40176l0 0c0 -4.8677673 3.946083 -8.813843 8.81382 -8.813843l40.3881 0c2.3375702 0 4.5794067 0.92858887 6.232315 2.5815125c1.6529083 1.6529236 2.5815125 3.8947449 2.5815125 6.2323303l0 35.254242c0 4.867737 -3.9460907 8.813812 -8.8138275 8.813812l-40.3881 0c-4.867737 0 -8.81382 -3.9460754 -8.81382 -8.813812z" fill-rule="evenodd"></path><path stroke="#000000" stroke-width="2.0" stroke-linejoin="round" stroke-linecap="butt" d="m89.973755 365.40176l0 0c0 -4.8677673 3.946083 -8.813843 8.81382 -8.813843l40.3881 0c2.3375702 0 4.5794067 0.92858887 6.232315 2.5815125c1.6529083 1.6529236 2.5815125 3.8947449 2.5815125 6.2323303l0 35.254242c0 4.867737 -3.9460907 8.813812 -8.8138275 8.813812l-40.3881 0c-4.867737 0 -8.81382 -3.9460754 -8.81382 -8.813812z" fill-rule="evenodd"></path><path fill="#000000" d="m118.9953 388.06888l-3.09375 3.5l-4.125 0l5.765625 -6.375l-3.171875 -6.078125l3.578125 0l1.8125 3.5625l3.15625 -3.5625l4.09375 0l-5.78125 6.46875l3.140625 5.984375l-3.578125 0l-1.796875 -3.5z" fill-rule="nonzero"></path><path fill="#cfe2f3" d="m169.97375 365.40176l0 0c0 -4.8677673 3.9460754 -8.813843 8.8138275 -8.813843l40.388092 0c2.3375702 0 4.5794067 0.92858887 6.232315 2.5815125c1.6529083 1.6529236 2.5815125 3.8947449 2.5815125 6.2323303l0 35.254242c0 4.867737 -3.9460907 8.813812 -8.8138275 8.813812l-40.388092 0c-4.867752 0 -8.8138275 -3.9460754 -8.8138275 -8.813812z" fill-rule="evenodd"></path><path stroke="#000000" stroke-width="2.0" stroke-linejoin="round" stroke-linecap="butt" d="m169.97375 365.40176l0 0c0 -4.8677673 3.9460754 -8.813843 8.8138275 -8.813843l40.388092 0c2.3375702 0 4.5794067 0.92858887 6.232315 2.5815125c1.6529083 1.6529236 2.5815125 3.8947449 2.5815125 6.2323303l0 35.254242c0 4.867737 -3.9460907 8.813812 -8.8138275 8.813812l-40.388092 0c-4.867752 0 -8.8138275 -3.9460754 -8.8138275 -8.813812z" fill-rule="evenodd"></path><path fill="#000000" d="m193.38788 391.56888l0.46875 -2.28125l6.828125 -7.546875l-5.5625 0l0.546875 -2.625l9.765625 0l-0.421875 2.015625l-6.875 7.71875l5.984375 0l-0.5625 2.71875l-10.171875 0z" fill-rule="nonzero"></path><path fill="#cfe2f3" d="m345.97375 365.40176l0 0c0 -4.8677673 3.9460754 -8.813843 8.813812 -8.813843l40.388123 0c2.337555 0 4.579376 0.92858887 6.2323 2.5815125c1.6529236 1.6529236 2.5815125 3.8947449 2.5815125 6.2323303l0 35.254242c0 4.867737 -3.9460754 8.813812 -8.813812 8.813812l-40.388123 0c-4.867737 0 -8.813812 -3.9460754 -8.813812 -8.813812z" fill-rule="evenodd"></path><path stroke="#000000" stroke-width="2.0" stroke-linejoin="round" stroke-linecap="butt" d="m345.97375 365.40176l0 0c0 -4.8677673 3.9460754 -8.813843 8.813812 -8.813843l40.388123 0c2.337555 0 4.579376 0.92858887 6.2323 2.5815125c1.6529236 1.6529236 2.5815125 3.8947449 2.5815125 6.2323303l0 35.254242c0 4.867737 -3.9460754 8.813812 -8.813812 8.813812l-40.388123 0c-4.867737 0 -8.813812 -3.9460754 -8.813812 -8.813812z" fill-rule="evenodd"></path><path fill="#000000" d="m380.44843 388.50638l0 3.0625l-11.546875 0q0.1875 -1.734375 1.125 -3.28125q0.9375 -1.5625 3.703125 -4.125q2.234375 -2.078125 2.734375 -2.8125q0.6875 -1.015625 0.6875 -2.015625q0 -1.109375 -0.59375 -1.6875q-0.59375 -0.59375 -1.640625 -0.59375q-1.03125 0 -1.640625 0.625q-0.609375 0.609375 -0.703125 2.046875l-3.28125 -0.328125q0.296875 -2.71875 1.84375 -3.890625q1.546875 -1.1875 3.859375 -1.1875q2.546875 0 4.0 1.375q1.453125 1.359375 1.453125 3.40625q0 1.15625 -0.421875 2.203125q-0.40625 1.046875 -1.3125 2.203125q-0.59375 0.765625 -2.15625 2.203125q-1.5625 1.421875 -1.984375 1.890625q-0.40625 0.46875 -0.65625 0.90625l6.53125 0z" fill-rule="nonzero"></path><path fill="#cfe2f3" d="m425.97375 581.40173l0 0c0 -4.867737 3.9460754 -8.813782 8.813812 -8.813782l40.388123 0c2.337555 0 4.579376 0.92858887 6.2323 2.581482c1.6529236 1.6528931 2.5815125 3.8947754 2.5815125 6.2323l0 35.254272c0 4.867737 -3.9460754 8.813782 -8.813812 8.813782l-40.388123 0c-4.867737 0 -8.813812 -3.946045 -8.813812 -8.813782z" fill-rule="evenodd"></path><path stroke="#000000" stroke-width="2.0" stroke-linejoin="round" stroke-linecap="butt" d="m425.97375 581.40173l0 0c0 -4.867737 3.9460754 -8.813782 8.813812 -8.813782l40.388123 0c2.337555 0 4.579376 0.92858887 6.2323 2.581482c1.6529236 1.6528931 2.5815125 3.8947754 2.5815125 6.2323l0 35.254272c0 4.867737 -3.9460754 8.813782 -8.813812 8.813782l-40.388123 0c-4.867737 0 -8.813812 -3.946045 -8.813812 -8.813782z" fill-rule="evenodd"></path><path fill="#000000" d="m451.0871 607.56885l-3.296875 0l0 -12.40625q-1.8125 1.6875 -4.25 2.484375l0 -2.984375q1.28125 -0.421875 2.796875 -1.59375q1.515625 -1.1875 2.078125 -2.75l2.671875 0l0 17.25zm4.9570312 -4.421875l3.28125 -0.34375q0.140625 1.125 0.828125 1.78125q0.703125 0.640625 1.609375 0.640625q1.03125 0 1.734375 -0.828125q0.71875 -0.84375 0.71875 -2.53125q0 -1.59375 -0.71875 -2.375q-0.703125 -0.796875 -1.828125 -0.796875q-1.421875 0 -2.546875 1.25l-2.671875 -0.375l1.6875 -8.953125l8.703125 0l0 3.09375l-6.203125 0l-0.515625 2.90625q1.09375 -0.546875 2.25 -0.546875q2.1875 0 3.703125 1.59375q1.53125 1.59375 1.53125 4.140625q0 2.125 -1.234375 3.78125q-1.671875 2.28125 -4.65625 2.28125q-2.375 0 -3.875 -1.28125q-1.5 -1.28125 -1.796875 -3.4375z" fill-rule="nonzero"></path><path fill="#cfe2f3" d="m505.97375 581.40173l0 0c0 -4.867737 3.9460754 -8.813782 8.813843 -8.813782l40.38806 0c2.3375854 0 4.5794067 0.92858887 6.232361 2.581482c1.6528931 1.6528931 2.581482 3.8947754 2.581482 6.2323l0 35.254272c0 4.867737 -3.946106 8.813782 -8.813843 8.813782l-40.38806 0c-4.8677673 0 -8.813843 -3.946045 -8.813843 -8.813782z" fill-rule="evenodd"></path><path stroke="#000000" stroke-width="2.0" stroke-linejoin="round" stroke-linecap="butt" d="m505.97375 581.40173l0 0c0 -4.867737 3.9460754 -8.813782 8.813843 -8.813782l40.38806 0c2.3375854 0 4.5794067 0.92858887 6.232361 2.581482c1.6528931 1.6528931 2.581482 3.8947754 2.581482 6.2323l0 35.254272c0 4.867737 -3.946106 8.813782 -8.813843 8.813782l-40.38806 0c-4.8677673 0 -8.813843 -3.946045 -8.813843 -8.813782z" fill-rule="evenodd"></path><path fill="#000000" d="m530.3078 595.1157l3.359375 0l0.84375 6.203125q0.3125 2.390625 0.34375 3.359375q0.65625 -1.921875 1.8125 -4.03125l2.96875 -5.53125l3.5625 0l-7.6875 13.671875q-0.9375 1.703125 -1.484375 2.375q-0.546875 0.6875 -1.3125 1.0625q-0.765625 0.390625 -1.84375 0.390625q-1.078125 0 -2.40625 -0.375l0.296875 -2.5q0.609375 0.171875 1.171875 0.171875q1.546875 0 2.546875 -2.34375l-2.171875 -12.453125z" fill-rule="nonzero"></path><path fill="#000000" fill-opacity="0.0" d="m464.57718 356.58792l58.015778 0l0 52.881897l-58.015778 0z" fill-rule="evenodd"></path><path stroke="#000000" stroke-width="2.0" stroke-linejoin="round" stroke-linecap="butt" d="m464.57718 356.58792l58.015778 0l0 52.881897l-58.015778 0z" fill-rule="evenodd"></path><path fill="#000000" d="m489.44638 396.61575l-2.265625 0q-1.796875 -2.703125 -2.734375 -5.625q-0.9375 -2.921875 -0.9375 -5.640625q0 -3.390625 1.171875 -6.421875q1.0 -2.625 2.546875 -4.828125l2.25 0q-1.609375 3.546875 -2.21875 6.046875q-0.59375 2.484375 -0.59375 5.265625q0 1.921875 0.359375 3.9375q0.359375 2.015625 0.984375 3.84375q0.40625 1.1875 1.4375 3.421875zm8.285156 0q0.96875 -2.078125 1.359375 -3.203125q0.40625 -1.109375 0.75 -2.5625q0.34375 -1.453125 0.5 -2.75q0.171875 -1.3125 0.171875 -2.6875q0 -2.78125 -0.609375 -5.265625q-0.59375 -2.5 -2.203125 -6.046875l2.25 0q1.765625 2.515625 2.734375 5.34375q0.984375 2.8125 0.984375 5.71875q0 2.453125 -0.765625 5.25q-0.890625 3.15625 -2.90625 6.203125l-2.265625 0z" fill-rule="nonzero"></path><path fill="#fff2cc" d="m88.57718 252.58792l58.015747 0l0 52.881897l-58.015747 0z" fill-rule="evenodd"></path><path stroke="#000000" stroke-width="2.0" stroke-linejoin="round" stroke-linecap="butt" d="m88.57718 252.58792l58.015747 0l0 52.881897l-58.015747 0z" fill-rule="evenodd"></path><path fill="#000000" d="m115.79013 278.28763l-1.765625 -1.375q0.84375 -0.953125 1.75 -1.8125q0.359375 -0.359375 0.453125 -0.453125q-0.28125 -0.046875 -1.671875 -0.375q-1.0 -0.25 -1.3125 -0.375l0.6875 -2.0625q1.546875 0.625 2.75 1.375q-0.28125 -1.90625 -0.28125 -3.109375l2.078125 0q0 0.84375 -0.3125 3.140625q0.234375 -0.09375 1.015625 -0.46875q1.046875 -0.46875 1.9375 -0.8125l0.625 2.125q-1.296875 0.28125 -3.015625 0.5625l1.40625 1.59375q0.421875 0.46875 0.671875 0.78125l-1.796875 1.1875l-1.578125 -2.625q-0.71875 1.265625 -1.640625 2.703125z" fill-rule="nonzero"></path><path fill="#fff2cc" d="m408.57718 252.58792l58.015747 0l0 52.881897l-58.015747 0z" fill-rule="evenodd"></path><path stroke="#000000" stroke-width="2.0" stroke-linejoin="round" stroke-linecap="butt" d="m408.57718 252.58792l58.015747 0l0 52.881897l-58.015747 0z" fill-rule="evenodd"></path><path fill="#000000" d="m435.79013 278.28763l-1.765625 -1.375q0.84375 -0.953125 1.75 -1.8125q0.359375 -0.359375 0.453125 -0.453125q-0.28125 -0.046875 -1.671875 -0.375q-1.0 -0.25 -1.3125 -0.375l0.6875 -2.0625q1.546875 0.625 2.75 1.375q-0.28125 -1.90625 -0.28125 -3.109375l2.078125 0q0 0.84375 -0.3125 3.140625q0.234375 -0.09375 1.015625 -0.46875q1.046875 -0.46875 1.9375 -0.8125l0.625 2.125q-1.296875 0.28125 -3.015625 0.5625l1.40625 1.59375q0.421875 0.46875 0.671875 0.78125l-1.796875 1.1875l-1.578125 -2.625q-0.71875 1.265625 -1.640625 2.703125z" fill-rule="nonzero"></path><path fill="#f4cccc" d="m248.57718 100.58793l58.015747 0l0 52.88189l-58.015747 0z" fill-rule="evenodd"></path><path stroke="#000000" stroke-width="2.0" stroke-linejoin="round" stroke-linecap="butt" d="m248.57718 100.58793l58.015747 0l0 52.88189l-58.015747 0z" fill-rule="evenodd"></path><path fill="#000000" d="m276.07724 133.10011l0 -4.46875l-4.5 0l0 -3.0781174l4.5 0l0 -4.46875l3.0 0l0 4.46875l4.515625 0l0 3.0781174l-4.515625 0l0 4.46875l-3.0 0z" fill-rule="nonzero"></path><path fill="#000000" fill-opacity="0.0" d="m117.58505 252.58792l160.0 -99.1181" fill-rule="evenodd"></path><path stroke="#000000" stroke-width="2.0" stroke-linejoin="round" stroke-linecap="butt" d="m117.58505 252.58792l160.0 -99.1181" fill-rule="evenodd"></path><path fill="#000000" fill-opacity="0.0" d="m277.58505 153.46982l160.0 99.1181" fill-rule="evenodd"></path><path stroke="#000000" stroke-width="2.0" stroke-linejoin="round" stroke-linecap="butt" d="m277.58505 153.46982l160.0 99.1181" fill-rule="evenodd"></path><path fill="#000000" fill-opacity="0.0" d="m38.98163 356.58792l78.614174 -51.118103" fill-rule="evenodd"></path><path stroke="#000000" stroke-width="2.0" stroke-linejoin="round" stroke-linecap="butt" d="m38.98163 356.58792l78.614174 -51.118103" fill-rule="evenodd"></path><path fill="#000000" fill-opacity="0.0" d="m118.98163 356.58792l-1.3858261 -51.118103" fill-rule="evenodd"></path><path stroke="#000000" stroke-width="2.0" stroke-linejoin="round" stroke-linecap="butt" d="m118.98163 356.58792l-1.3858261 -51.118103" fill-rule="evenodd"></path><path fill="#000000" fill-opacity="0.0" d="m198.98163 356.58792l-81.385826 -51.118103" fill-rule="evenodd"></path><path stroke="#000000" stroke-width="2.0" stroke-linejoin="round" stroke-linecap="butt" d="m198.98163 356.58792l-81.385826 -51.118103" fill-rule="evenodd"></path><path fill="#000000" fill-opacity="0.0" d="m374.98163 356.58792l62.614166 -51.118103" fill-rule="evenodd"></path><path stroke="#000000" stroke-width="2.0" stroke-linejoin="round" stroke-linecap="butt" d="m374.98163 356.58792l62.614166 -51.118103" fill-rule="evenodd"></path><path fill="#000000" fill-opacity="0.0" d="m493.58505 356.58792l-56.0 -51.118103" fill-rule="evenodd"></path><path stroke="#000000" stroke-width="2.0" stroke-linejoin="round" stroke-linecap="butt" d="m493.58505 356.58792l-56.0 -51.118103" fill-rule="evenodd"></path><path fill="#000000" fill-opacity="0.0" d="m454.98163 572.58795l38.614166 -51.118164" fill-rule="evenodd"></path><path stroke="#000000" stroke-width="2.0" stroke-linejoin="round" stroke-linecap="butt" d="m454.98163 572.58795l38.614166 -51.118164" fill-rule="evenodd"></path><path fill="#000000" fill-opacity="0.0" d="m534.9816 572.58795l-41.385834 -51.118164" fill-rule="evenodd"></path><path stroke="#000000" stroke-width="2.0" stroke-linejoin="round" stroke-linecap="butt" d="m534.9816 572.58795l-41.385834 -51.118164" fill-rule="evenodd"></path><path fill="#f4cccc" d="m464.57718 468.58792l58.015778 0l0 52.881866l-58.015778 0z" fill-rule="evenodd"></path><path stroke="#000000" stroke-width="2.0" stroke-linejoin="round" stroke-linecap="butt" d="m464.57718 468.58792l58.015778 0l0 52.881866l-58.015778 0z" fill-rule="evenodd"></path><path fill="#000000" d="m492.07724 501.10013l0 -4.46875l-4.5 0l0 -3.078125l4.5 0l0 -4.46875l3.0 0l0 4.46875l4.515625 0l0 3.078125l-4.515625 0l0 4.46875l-3.0 0z" fill-rule="nonzero"></path><path fill="#000000" fill-opacity="0.0" d="m493.58505 409.46982l0 59.118103" fill-rule="evenodd"></path><path stroke="#000000" stroke-width="2.0" stroke-linejoin="round" stroke-linecap="butt" d="m493.58505 409.46982l0 59.118103" fill-rule="evenodd"></path></g></svg>

