<svg version="1.1" viewBox="0.0 0.0 1260.3779527559054 523.6929133858267" fill="none" stroke="none" stroke-linecap="square" stroke-miterlimit="10" xmlns:xlink="http://www.w3.org/1999/xlink" xmlns="http://www.w3.org/2000/svg"><clipPath id="p.0"><path d="m0 0l1260.3779 0l0 523.69293l-1260.3779 0l0 -523.69293z" clip-rule="nonzero"/></clipPath><g clip-path="url(#p.0)"><path fill="#000000" fill-opacity="0.0" d="m0 0l1260.3779 0l0 523.69293l-1260.3779 0z" fill-rule="evenodd"/><path fill="#000000" fill-opacity="0.0" d="m49.737534 26.603674l462.55115 0l0 89.98425l-462.55115 0z" fill-rule="evenodd"/><path fill="#000000" d="m98.56 55.339302l0 7.78125l4.5625 0q1.15625 0 1.640625 0.453125q0.5 0.4375 0.5 1.15625q0 0.703125 -0.5 1.15625q-0.484375 0.4375 -1.640625 0.4375l-9.671875 0q-1.15625 0 -1.65625 -0.4375q-0.484375 -0.453125 -0.484375 -1.171875q0 -0.703125 0.484375 -1.140625q0.5 -0.453125 1.65625 -0.453125l1.90625 0l0 -7.78125l-1.53125 0q-1.15625 0 -1.65625 -0.4375q-0.484375 -0.453125 -0.484375 -1.171875q0 -0.703125 0.484375 -1.140625q0.5 -0.453125 1.65625 -0.453125l1.53125 0l0 -1.21875q0 -2.09375 1.5625 -3.46875q1.578125 -1.390625 4.5625 -1.390625q1.328125 0 3.0625 0.25q1.75 0.234375 2.234375 0.671875q0.5 0.4375 0.5 1.125q0 0.734375 -0.4375 1.203125q-0.4375 0.453125 -1.078125 0.453125q-0.296875 0 -0.890625 -0.109375q-1.984375 -0.390625 -3.515625 -0.390625q-1.59375 0 -2.203125 0.484375q-0.59375 0.46875 -0.59375 1.171875l0 1.21875l4.9375 0q1.15625 0 1.640625 0.453125q0.5 0.4375 0.5 1.15625q0 0.703125 -0.5 1.15625q-0.484375 0.4375 -1.640625 0.4375l-4.9375 0zm18.078125 3.203125q0 -2.734375 0.90625 -5.53125q0.671875 -2.0625 2.078125 -4.59375q1.015625 -1.8125 1.5 -2.21875q0.484375 -0.421875 1.078125 -0.421875q0.6875 0 1.15625 0.46875q0.46875 0.46875 0.46875 1.125q0 0.453125 -0.375 1.078125q-1.6875 2.765625 -2.46875 5.1875q-0.765625 2.421875 -0.765625 4.90625q0 2.5 0.765625 4.921875q0.78125 2.421875 2.46875 5.1875q0.375 0.609375 0.375 1.078125q0 0.65625 -0.46875 1.125q-0.46875 0.46875 -1.15625 0.46875q-0.578125 0 -1.015625 -0.375q-0.625 -0.546875 -1.65625 -2.453125q-1.484375 -2.765625 -2.03125 -4.5625q-0.859375 -2.75 -0.859375 -5.390625zm22.75 0.40625l4.859375 4.171875q0.875 0.046875 1.3125 0.5q0.4375 0.4375 0.4375 1.109375q0 0.703125 -0.5 1.15625q-0.484375 0.4375 -1.640625 0.4375l-3.640625 0q-1.15625 0 -1.65625 -0.4375q-0.484375 -0.453125 -0.484375 -1.1875q0 -0.5625 0.34375 -0.984375q0.359375 -0.4375 0.96875 -0.59375l-2.390625 -2.0625l-2.4375 2.0625q0.734375 0.1875 1.046875 0.578125q0.328125 0.390625 0.328125 1.0q0 0.734375 -0.484375 1.1875q-0.484375 0.4375 -1.640625 0.4375l-3.609375 0q-1.15625 0 -1.65625 -0.4375q-0.484375 -0.453125 -0.484375 -1.171875q0 -0.65625 0.4375 -1.09375q0.4375 -0.453125 1.3125 -0.5l4.75 -4.1875l-4.203125 -3.59375q-0.828125 -0.0625 -1.265625 -0.5q-0.421875 -0.453125 -0.421875 -1.109375q0 -0.703125 0.484375 -1.140625q0.5 -0.453125 1.65625 -0.453125l3.0 0q1.15625 0 1.640625 0.453125q0.5 0.4375 0.5 1.125q0 0.921875 -0.875 1.5l1.9375 1.609375l1.90625 -1.640625q-0.859375 -0.609375 -0.859375 -1.40625q0 -0.75 0.484375 -1.1875q0.5 -0.453125 1.65625 -0.453125l2.96875 0q1.15625 0 1.640625 0.453125q0.5 0.4375 0.5 1.15625q0 0.640625 -0.4375 1.09375q-0.421875 0.4375 -1.265625 0.5l-4.21875 3.609375zm18.171875 -0.40625q0 2.734375 -0.90625 5.546875q-0.671875 2.0625 -2.078125 4.578125q-1.015625 1.8125 -1.5 2.234375q-0.484375 0.421875 -1.078125 0.421875q-0.6875 0 -1.15625 -0.46875q-0.46875 -0.46875 -0.46875 -1.125q0 -0.46875 0.375 -1.078125q1.6875 -2.765625 2.453125 -5.1875q0.78125 -2.421875 0.78125 -4.921875q0 -2.484375 -0.78125 -4.90625q-0.765625 -2.421875 -2.453125 -5.1875q-0.375 -0.625 -0.375 -1.078125q0 -0.65625 0.46875 -1.125q0.46875 -0.46875 1.15625 -0.46875q0.578125 0 1.015625 0.375q0.625 0.53125 1.65625 2.453125q1.484375 2.765625 2.03125 4.546875q0.859375 2.765625 0.859375 5.390625zm43.90625 -2.75l-13.6875 0q-1.15625 0 -1.65625 -0.4375q-0.484375 -0.453125 -0.484375 -1.171875q0 -0.703125 0.484375 -1.140625q0.5 -0.453125 1.65625 -0.453125l13.6875 0q1.15625 0 1.640625 0.453125q0.5 0.4375 0.5 1.15625q0 0.703125 -0.5 1.15625q-0.484375 0.4375 -1.640625 0.4375zm0 6.03125l-13.6875 0q-1.15625 0 -1.65625 -0.4375q-0.484375 -0.4375 -0.484375 -1.15625q0 -0.71875 0.484375 -1.15625q0.5 -0.453125 1.65625 -0.453125l13.6875 0q1.15625 0 1.640625 0.453125q0.5 0.4375 0.5 1.15625q0 0.71875 -0.5 1.15625q-0.484375 0.4375 -1.640625 0.4375zm33.171875 -16.234375l0 17.53125l3.234375 0q1.15625 0 1.640625 0.453125q0.5 0.4375 0.5 1.15625q0 0.703125 -0.5 1.15625q-0.484375 0.4375 -1.640625 0.4375l-9.671875 0q-1.15625 0 -1.65625 -0.4375q-0.484375 -0.453125 -0.484375 -1.171875q0 -0.703125 0.484375 -1.140625q0.5 -0.453125 1.65625 -0.453125l3.234375 0l0 -13.359375l-2.859375 0.75q-0.6875 0.1875 -1.03125 0.1875q-0.609375 0 -1.0625 -0.484375q-0.4375 -0.484375 -0.4375 -1.1875q0 -0.640625 0.328125 -1.0q0.328125 -0.375 1.375 -0.65625l6.890625 -1.78125zm24.5625 8.84375l0 3.515625q0 3.125 -1.8125 5.984375q-1.796875 2.859375 -5.15625 2.859375q-1.9375 0 -3.28125 -0.84375q-1.328125 -0.859375 -2.53125 -3.140625q-1.1875 -2.296875 -1.1875 -4.859375l0 -3.515625q0 -3.109375 1.796875 -5.96875q1.796875 -2.875 5.15625 -2.875q1.921875 0 3.25 0.84375q1.34375 0.84375 2.546875 3.140625q1.21875 2.28125 1.21875 4.859375zm-3.21875 0q0 -2.609375 -1.453125 -4.5625q-0.828125 -1.078125 -2.328125 -1.078125q-1.453125 0 -2.375 1.1875q-1.390625 1.796875 -1.390625 4.453125l0 3.515625q0 2.625 1.46875 4.5625q0.8125 1.078125 2.328125 1.078125q1.4375 0 2.359375 -1.1875q1.390625 -1.796875 1.390625 -4.453125l0 -3.515625zm12.8125 -0.234375l-2.765625 -0.890625q-0.984375 -0.3125 -1.25 -0.671875q-0.375 -0.453125 -0.375 -1.015625q0 -0.65625 0.453125 -1.125q0.46875 -0.484375 1.046875 -0.484375q0.375 0 1.109375 0.25l2.765625 0.890625l0 -2.90625q0 -1.15625 0.4375 -1.640625q0.453125 -0.5 1.171875 -0.5q0.71875 0 1.15625 0.5q0.4375 0.484375 0.4375 1.640625l0 2.90625l2.765625 -0.890625q0.75 -0.25 1.09375 -0.25q0.59375 0 1.046875 0.46875q0.46875 0.46875 0.46875 1.125q0 0.578125 -0.328125 0.984375q-0.3125 0.390625 -1.28125 0.71875l-2.765625 0.890625l1.703125 2.359375q0.625 0.859375 0.625 1.359375q0 0.671875 -0.46875 1.140625q-0.46875 0.46875 -1.125 0.46875q-0.484375 0 -0.8125 -0.203125q-0.3125 -0.203125 -0.8125 -0.890625l-1.703125 -2.34375l-1.71875 2.34375q-0.484375 0.6875 -0.8125 0.90625q-0.328125 0.203125 -0.796875 0.203125q-0.65625 0 -1.140625 -0.46875q-0.46875 -0.484375 -0.46875 -1.171875q0 -0.484375 0.625 -1.34375l1.71875 -2.359375zm24.21875 4.75l4.859375 4.171875q0.875 0.046875 1.3125 0.5q0.4375 0.4375 0.4375 1.109375q0 0.703125 -0.5 1.15625q-0.484375 0.4375 -1.640625 0.4375l-3.640625 0q-1.15625 0 -1.65625 -0.4375q-0.484375 -0.453125 -0.484375 -1.1875q0 -0.5625 0.34375 -0.984375q0.359375 -0.4375 0.96875 -0.59375l-2.390625 -2.0625l-2.4375 2.0625q0.734375 0.1875 1.046875 0.578125q0.328125 0.390625 0.328125 1.0q0 0.734375 -0.484375 1.1875q-0.484375 0.4375 -1.640625 0.4375l-3.609375 0q-1.15625 0 -1.65625 -0.4375q-0.484375 -0.453125 -0.484375 -1.171875q0 -0.65625 0.4375 -1.09375q0.4375 -0.453125 1.3125 -0.5l4.75 -4.1875l-4.203125 -3.59375q-0.828125 -0.0625 -1.265625 -0.5q-0.421875 -0.453125 -0.421875 -1.109375q0 -0.703125 0.484375 -1.140625q0.5 -0.453125 1.65625 -0.453125l3.0 0q1.15625 0 1.640625 0.453125q0.5 0.4375 0.5 1.125q0 0.921875 -0.875 1.5l1.9375 1.609375l1.90625 -1.640625q-0.859375 -0.609375 -0.859375 -1.40625q0 -0.75 0.484375 -1.1875q0.5 -0.453125 1.65625 -0.453125l2.96875 0q1.15625 0 1.640625 0.453125q0.5 0.4375 0.5 1.15625q0 0.640625 -0.4375 1.09375q-0.421875 0.4375 -1.265625 0.5l-4.21875 3.609375zm42.71872 -0.25l-13.375 0l0 -2.921875l13.375 0l0 2.921875zm33.296875 -12.640625l0 17.0625l3.84375 0q1.15625 0 1.640625 0.453125q0.5 0.4375 0.5 1.15625q0 0.703125 -0.5 1.15625q-0.484375 0.4375 -1.640625 0.4375l-10.890625 0q-1.15625 0 -1.65625 -0.4375q-0.484375 -0.453125 -0.484375 -1.171875q0 -0.703125 0.484375 -1.140625q0.5 -0.453125 1.65625 -0.453125l3.84375 0l0 -13.859375l-2.578125 0q-1.140625 0 -1.640625 -0.4375q-0.5 -0.453125 -0.5 -1.171875q0 -0.703125 0.484375 -1.140625q0.5 -0.453125 1.65625 -0.453125l5.78125 0zm25.921875 13.4375q0 1.84375 -1.03125 3.578125q-1.015625 1.71875 -3.046875 2.75q-2.015625 1.015625 -4.21875 1.015625q-2.1875 0 -4.1875 -1.0q-2.0 -1.015625 -3.046875 -2.75q-1.046875 -1.734375 -1.046875 -3.625q0 -1.921875 1.0625 -3.765625q1.0625 -1.859375 3.046875 -2.921875q2.0 -1.0625 4.171875 -1.0625q2.1875 0 4.203125 1.09375q2.03125 1.078125 3.0625 2.921875q1.03125 1.828125 1.03125 3.765625zm-3.203125 0.015625q0 -1.546875 -1.109375 -2.84375q-1.515625 -1.75 -3.984375 -1.75q-2.171875 0 -3.625 1.390625q-1.453125 1.390625 -1.453125 3.21875q0 1.5 1.46875 2.8125q1.46875 1.296875 3.609375 1.296875q2.15625 0 3.625 -1.296875q1.46875 -1.3125 1.46875 -2.828125zm17.609375 -6.421875l0 -0.953125l3.75 0q1.15625 0 1.640625 0.453125q0.5 0.4375 0.5 1.15625q0 0.703125 -0.5 1.15625q-0.484375 0.4375 -1.640625 0.4375l-0.546875 0l0 11.65625q0 1.6875 -0.71875 2.9375q-0.703125 1.265625 -2.171875 2.171875q-1.46875 0.90625 -3.3125 0.90625l-3.625 0q-1.15625 0 -1.65625 -0.453125q-0.484375 -0.4375 -0.484375 -1.140625q0 -0.71875 0.484375 -1.171875q0.5 -0.4375 1.65625 -0.4375l3.53125 0q1.46875 0 2.28125 -0.796875q0.8125 -0.796875 0.8125 -2.015625l0 -1.5625q-1.0625 0.6875 -2.171875 1.03125q-1.09375 0.34375 -2.25 0.34375q-3.265625 0 -5.46875 -2.171875q-2.203125 -2.1875 -2.203125 -5.390625q0 -3.21875 2.203125 -5.390625q2.203125 -2.1875 5.46875 -2.1875q1.21875 0 2.3125 0.359375q1.109375 0.34375 2.109375 1.0625zm-0.015625 6.140625q0 -1.765625 -1.3125 -3.0625q-1.296875 -1.296875 -3.125 -1.296875q-1.828125 0 -3.140625 1.296875q-1.296875 1.296875 -1.296875 3.0625q0 1.78125 1.296875 3.078125q1.3125 1.28125 3.140625 1.28125q1.828125 0 3.125 -1.28125q1.3125 -1.296875 1.3125 -3.078125zm14.546875 -0.6875q0 -2.734375 0.90625 -5.53125q0.671875 -2.0625 2.078125 -4.59375q1.015625 -1.8125 1.5 -2.21875q0.484375 -0.421875 1.078125 -0.421875q0.6875 0 1.15625 0.46875q0.46875 0.46875 0.46875 1.125q0 0.453125 -0.375 1.078125q-1.6875 2.765625 -2.46875 5.1875q-0.765625 2.421875 -0.765625 4.90625q0 2.5 0.765625 4.921875q0.78125 2.421875 2.46875 5.1875q0.375 0.609375 0.375 1.078125q0 0.65625 -0.46875 1.125q-0.46875 0.46875 -1.15625 0.46875q-0.578125 0 -1.015625 -0.375q-0.625 -0.546875 -1.65625 -2.453125q-1.484375 -2.765625 -2.03125 -4.5625q-0.859375 -2.75 -0.859375 -5.390625zm22.75 0.40625l4.859375 4.171875q0.875 0.046875 1.3125 0.5q0.4375 0.4375 0.4375 1.109375q0 0.703125 -0.5 1.15625q-0.484375 0.4375 -1.640625 0.4375l-3.640625 0q-1.15625 0 -1.65625 -0.4375q-0.484375 -0.453125 -0.484375 -1.1875q0 -0.5625 0.34375 -0.984375q0.359375 -0.4375 0.96875 -0.59375l-2.390625 -2.0625l-2.4375 2.0625q0.734375 0.1875 1.046875 0.578125q0.328125 0.390625 0.328125 1.0q0 0.734375 -0.484375 1.1875q-0.484375 0.4375 -1.640625 0.4375l-3.609375 0q-1.15625 0 -1.65625 -0.4375q-0.484375 -0.453125 -0.484375 -1.171875q0 -0.65625 0.4375 -1.09375q0.4375 -0.453125 1.3125 -0.5l4.75 -4.1875l-4.203125 -3.59375q-0.828125 -0.0625 -1.265625 -0.5q-0.421875 -0.453125 -0.421875 -1.109375q0 -0.703125 0.484375 -1.140625q0.5 -0.453125 1.65625 -0.453125l3.0 0q1.15625 0 1.640625 0.453125q0.5 0.4375 0.5 1.125q0 0.921875 -0.875 1.5l1.9375 1.609375l1.90625 -1.640625q-0.859375 -0.609375 -0.859375 -1.40625q0 -0.75 0.484375 -1.1875q0.5 -0.453125 1.65625 -0.453125l2.96875 0q1.15625 0 1.640625 0.453125q0.5 0.4375 0.5 1.15625q0 0.640625 -0.4375 1.09375q-0.421875 0.4375 -1.265625 0.5l-4.21875 3.609375zm18.171875 -0.40625q0 2.734375 -0.90625 5.546875q-0.671875 2.0625 -2.078125 4.578125q-1.015625 1.8125 -1.5 2.234375q-0.484375 0.421875 -1.078125 0.421875q-0.6875 0 -1.15625 -0.46875q-0.46875 -0.46875 -0.46875 -1.125q0 -0.46875 0.375 -1.078125q1.6875 -2.765625 2.453125 -5.1875q0.78125 -2.421875 0.78125 -4.921875q0 -2.484375 -0.78125 -4.90625q-0.765625 -2.421875 -2.453125 -5.1875q-0.375 -0.625 -0.375 -1.078125q0 -0.65625 0.46875 -1.125q0.46875 -0.46875 1.15625 -0.46875q0.578125 0 1.015625 0.375q0.625 0.53125 1.65625 2.453125q1.484375 2.765625 2.03125 4.546875q0.859375 2.765625 0.859375 5.390625z" fill-rule="nonzero"/><path fill="#cfe2f3" d="m10.855643 365.40176l0 0c0 -4.8677673 3.946083 -8.813843 8.813825 -8.813843l60.136127 0c2.3375778 0 4.5794067 0.92858887 6.232315 2.5815125c1.652916 1.6529236 2.5815125 3.8947449 2.5815125 6.2323303l0 35.254242c0 4.867737 -3.946083 8.813812 -8.8138275 8.813812l-60.136127 0c-4.8677416 0 -8.813825 -3.9460754 -8.813825 -8.813812z" fill-rule="evenodd"/><path stroke="#000000" stroke-width="2.0" stroke-linejoin="round" stroke-linecap="butt" d="m10.855643 365.40176l0 0c0 -4.8677673 3.946083 -8.813843 8.813825 -8.813843l60.136127 0c2.3375778 0 4.5794067 0.92858887 6.232315 2.5815125c1.652916 1.6529236 2.5815125 3.8947449 2.5815125 6.2323303l0 35.254242c0 4.867737 -3.946083 8.813812 -8.8138275 8.813812l-60.136127 0c-4.8677416 0 -8.813825 -3.9460754 -8.813825 -8.813812z" fill-rule="evenodd"/><path fill="#000000" d="m35.83519 391.56888l-3.296875 0l0 -12.40625q-1.8125 1.6875 -4.25 2.484375l0 -2.984375q1.28125 -0.421875 2.796875 -1.59375q1.515625 -1.1875 2.078125 -2.75l2.671875 0l0 17.25zm10.488277 -17.25q2.484375 0 3.890625 1.78125q1.6875 2.109375 1.6875 7.0q0 4.875 -1.6875 7.0q-1.40625 1.765625 -3.890625 1.765625q-2.5156212 0 -4.046871 -1.921875q-1.53125 -1.9375 -1.53125 -6.890625q0 -4.84375 1.6875 -6.984375q1.390625 -1.75 3.8906212 -1.75zm0 2.734375q-0.609375 0 -1.0781212 0.375q-0.46875 0.375 -0.71875 1.359375q-0.34375 1.28125 -0.34375 4.3125q0 3.015625 0.296875 4.15625q0.3125 1.125 0.765625 1.5q0.4687462 0.375 1.0781212 0.375q0.59375 0 1.0625 -0.375q0.46875 -0.390625 0.71875 -1.375q0.34375 -1.265625 0.34375 -4.28125q0 -3.03125 -0.3125 -4.15625q-0.296875 -1.140625 -0.765625 -1.515625q-0.453125 -0.375 -1.046875 -0.375zm8.472656 14.515625l0 -3.296875l3.296875 0l0 3.296875l-3.296875 0zm11.542973 -17.25q2.484375 0 3.890625 1.78125q1.6875 2.109375 1.6875 7.0q0 4.875 -1.6875 7.0q-1.40625 1.765625 -3.890625 1.765625q-2.5156288 0 -4.046879 -1.921875q-1.53125 -1.9375 -1.53125 -6.890625q0 -4.84375 1.6875 -6.984375q1.390625 -1.75 3.8906288 -1.75zm0 2.734375q-0.609375 0 -1.078125 0.375q-0.46875 0.375 -0.71875 1.359375q-0.34375 1.28125 -0.34375 4.3125q0 3.015625 0.296875 4.15625q0.3125 1.125 0.765625 1.5q0.46875 0.375 1.078125 0.375q0.59375 0 1.0625 -0.375q0.46875 -0.390625 0.71875 -1.375q0.34375 -1.265625 0.34375 -4.28125q0 -3.03125 -0.3125 -4.15625q-0.296875 -1.140625 -0.765625 -1.515625q-0.453125 -0.375 -1.046875 -0.375z" fill-rule="nonzero"/><path fill="#d9ead3" d="m153.93176 365.40176l0 0c0 -4.8677673 3.9460754 -8.813843 8.8138275 -8.813843l40.388092 0c2.3375702 0 4.5794067 0.92858887 6.232315 2.5815125c1.6529083 1.6529236 2.5815125 3.8947449 2.5815125 6.2323303l0 35.254242c0 4.867737 -3.9460907 8.813812 -8.8138275 8.813812l-40.388092 0c-4.867752 0 -8.8138275 -3.9460754 -8.8138275 -8.813812z" fill-rule="evenodd"/><path stroke="#000000" stroke-width="2.0" stroke-linejoin="round" stroke-linecap="butt" d="m153.93176 365.40176l0 0c0 -4.8677673 3.9460754 -8.813843 8.8138275 -8.813843l40.388092 0c2.3375702 0 4.5794067 0.92858887 6.232315 2.5815125c1.6529083 1.6529236 2.5815125 3.8947449 2.5815125 6.2323303l0 35.254242c0 4.867737 -3.9460907 8.813812 -8.8138275 8.813812l-40.388092 0c-4.867752 0 -8.8138275 -3.9460754 -8.8138275 -8.813812z" fill-rule="evenodd"/><path fill="#000000" d="m176.40643 391.56888l4.484375 -6.40625l-4.296875 -6.046875l4.015625 0l2.203125 3.421875l2.328125 -3.421875l3.859375 0l-4.21875 5.90625l4.609375 6.546875l-4.046875 0l-2.53125 -3.859375l-2.546875 3.859375l-3.859375 0z" fill-rule="nonzero"/><path fill="#d9ead3" d="m424.57742 373.40176l0 0c0 -4.8677673 3.9460754 -8.813843 8.813843 -8.813843l40.388092 0c2.337555 0 4.5794067 0.92858887 6.2323 2.5815125c1.6529236 1.6529236 2.5815125 3.8947449 2.5815125 6.2323303l0 35.254242c0 4.867737 -3.9460754 8.813812 -8.813812 8.813812l-40.388092 0c-4.8677673 0 -8.813843 -3.9460754 -8.813843 -8.813812z" fill-rule="evenodd"/><path stroke="#000000" stroke-width="2.0" stroke-linejoin="round" stroke-linecap="butt" d="m424.57742 373.40176l0 0c0 -4.8677673 3.9460754 -8.813843 8.813843 -8.813843l40.388092 0c2.337555 0 4.5794067 0.92858887 6.2323 2.5815125c1.6529236 1.6529236 2.5815125 3.8947449 2.5815125 6.2323303l0 35.254242c0 4.867737 -3.9460754 8.813812 -8.813812 8.813812l-40.388092 0c-4.8677673 0 -8.813843 -3.9460754 -8.813843 -8.813812z" fill-rule="evenodd"/><path fill="#000000" d="m447.0521 399.56888l4.484375 -6.40625l-4.296875 -6.046875l4.015625 0l2.203125 3.421875l2.328125 -3.421875l3.859375 0l-4.21875 5.90625l4.609375 6.546875l-4.046875 0l-2.53125 -3.859375l-2.546875 3.859375l-3.859375 0z" fill-rule="nonzero"/><path fill="#000000" fill-opacity="0.0" d="m104.57718 252.58792l58.015747 0l0 52.881897l-58.015747 0z" fill-rule="evenodd"/><path stroke="#000000" stroke-width="2.0" stroke-linejoin="round" stroke-linecap="butt" d="m104.57718 252.58792l58.015747 0l0 52.881897l-58.015747 0z" fill-rule="evenodd"/><path fill="#000000" d="m131.79013 278.28763l-1.765625 -1.375q0.84375 -0.953125 1.75 -1.8125q0.359375 -0.359375 0.453125 -0.453125q-0.28125 -0.046875 -1.671875 -0.375q-1.0 -0.25 -1.3125 -0.375l0.6875 -2.0625q1.546875 0.625 2.75 1.375q-0.28125 -1.90625 -0.28125 -3.109375l2.078125 0q0 0.84375 -0.3125 3.140625q0.234375 -0.09375 1.015625 -0.46875q1.046875 -0.46875 1.9375 -0.8125l0.625 2.125q-1.296875 0.28125 -3.015625 0.5625l1.40625 1.59375q0.421875 0.46875 0.671875 0.78125l-1.796875 1.1875l-1.578125 -2.625q-0.71875 1.265625 -1.640625 2.703125z" fill-rule="nonzero"/><path fill="#000000" fill-opacity="0.0" d="m424.57718 252.58792l58.015747 0l0 52.881897l-58.015747 0z" fill-rule="evenodd"/><path stroke="#000000" stroke-width="2.0" stroke-linejoin="round" stroke-linecap="butt" d="m424.57718 252.58792l58.015747 0l0 52.881897l-58.015747 0z" fill-rule="evenodd"/><path fill="#000000" d="m437.30966 287.56888l0 -17.1875l3.296875 0l0 17.1875l-3.296875 0zm5.9179688 -6.40625q0 -1.640625 0.796875 -3.171875q0.8125 -1.53125 2.296875 -2.34375q1.484375 -0.8125 3.3125 -0.8125q2.828125 0 4.625 1.84375q1.8125 1.828125 1.8125 4.625q0 2.828125 -1.828125 4.6875q-1.828125 1.859375 -4.59375 1.859375q-1.703125 0 -3.265625 -0.765625q-1.546875 -0.78125 -2.359375 -2.265625q-0.796875 -1.5 -0.796875 -3.65625zm3.375 0.1875q0 1.84375 0.875 2.828125q0.875 0.984375 2.171875 0.984375q1.28125 0 2.15625 -0.984375q0.875 -0.984375 0.875 -2.859375q0 -1.828125 -0.875 -2.8125q-0.875 -0.984375 -2.15625 -0.984375q-1.296875 0 -2.171875 0.984375q-0.875 0.984375 -0.875 2.84375zm11.738281 7.046875l3.765625 0.453125q0.09375 0.65625 0.421875 0.90625q0.46875 0.34375 1.484375 0.34375q1.28125 0 1.9375 -0.390625q0.421875 -0.25 0.65625 -0.828125q0.140625 -0.40625 0.140625 -1.515625l0 -1.8125q-1.46875 2.015625 -3.71875 2.015625q-2.515625 0 -3.96875 -2.125q-1.15625 -1.671875 -1.15625 -4.171875q0 -3.125 1.5 -4.78125q1.515625 -1.65625 3.75 -1.65625q2.3125 0 3.8125 2.03125l0 -1.75l3.078125 0l0 11.171875q0 2.203125 -0.359375 3.296875q-0.359375 1.09375 -1.015625 1.703125q-0.65625 0.625 -1.765625 0.96875q-1.09375 0.359375 -2.765625 0.359375q-3.15625 0 -4.484375 -1.078125q-1.328125 -1.078125 -1.328125 -2.75q0 -0.15625 0.015625 -0.390625zm2.9375 -7.3125q0 1.984375 0.765625 2.90625q0.765625 0.921875 1.890625 0.921875q1.21875 0 2.046875 -0.9375q0.828125 -0.953125 0.828125 -2.8125q0 -1.921875 -0.796875 -2.859375q-0.796875 -0.9375 -2.015625 -0.9375q-1.1875 0 -1.953125 0.921875q-0.765625 0.90625 -0.765625 2.796875z" fill-rule="nonzero"/><path fill="#000000" fill-opacity="0.0" d="m264.57718 100.58793l58.015747 0l0 52.88189l-58.015747 0z" fill-rule="evenodd"/><path stroke="#000000" stroke-width="2.0" stroke-linejoin="round" stroke-linecap="butt" d="m264.57718 100.58793l58.015747 0l0 52.88189l-58.015747 0z" fill-rule="evenodd"/><path fill="#000000" d="m290.94833 130.99074l0 -3.2968674l6.46875 0l0 3.2968674l-6.46875 0z" fill-rule="nonzero"/><path fill="#000000" fill-opacity="0.0" d="m133.58505 252.58792l160.0 -99.1181" fill-rule="evenodd"/><path stroke="#000000" stroke-width="2.0" stroke-linejoin="round" stroke-linecap="butt" d="m133.58505 252.58792l160.0 -99.1181" fill-rule="evenodd"/><path fill="#000000" fill-opacity="0.0" d="m293.58505 153.46982l160.0 99.1181" fill-rule="evenodd"/><path stroke="#000000" stroke-width="2.0" stroke-linejoin="round" stroke-linecap="butt" d="m293.58505 153.46982l160.0 99.1181" fill-rule="evenodd"/><path fill="#000000" fill-opacity="0.0" d="m49.737534 356.58792l83.842514 -51.118103" fill-rule="evenodd"/><path stroke="#000000" stroke-width="2.0" stroke-linejoin="round" stroke-linecap="butt" d="m49.737534 356.58792l83.842514 -51.118103" fill-rule="evenodd"/><path fill="#000000" fill-opacity="0.0" d="m453.58505 305.46982l0 59.118103" fill-rule="evenodd"/><path stroke="#000000" stroke-width="2.0" stroke-linejoin="round" stroke-linecap="butt" d="m453.58505 305.46982l0 59.118103" fill-rule="evenodd"/><path fill="#000000" fill-opacity="0.0" d="m173.58505 356.58792l-40.0 -51.118103" fill-rule="evenodd"/><path stroke="#000000" stroke-width="2.0" stroke-linejoin="round" stroke-linecap="butt" d="m173.58505 356.58792l-40.0 -51.118103" fill-rule="evenodd"/><path fill="#000000" fill-opacity="0.0" d="m784.57745 26.603674l365.13385 0l0 89.98425l-365.13385 0z" fill-rule="evenodd"/><path fill="#000000" d="m928.71466 55.339302l0 7.78125l4.5625 0q1.15625 0 1.640625 0.453125q0.5 0.4375 0.5 1.15625q0 0.703125 -0.5 1.15625q-0.484375 0.4375 -1.640625 0.4375l-9.671875 0q-1.15625 0 -1.65625 -0.4375q-0.484375 -0.453125 -0.484375 -1.171875q0 -0.703125 0.484375 -1.140625q0.5 -0.453125 1.65625 -0.453125l1.90625 0l0 -7.78125l-1.53125 0q-1.15625 0 -1.65625 -0.4375q-0.484375 -0.453125 -0.484375 -1.171875q0 -0.703125 0.484375 -1.140625q0.5 -0.453125 1.65625 -0.453125l1.53125 0l0 -1.21875q0 -2.09375 1.5625 -3.46875q1.578125 -1.390625 4.5625 -1.390625q1.328125 0 3.0625 0.25q1.75 0.234375 2.234375 0.671875q0.5 0.4375 0.5 1.125q0 0.734375 -0.4375 1.203125q-0.4375 0.453125 -1.078125 0.453125q-0.296875 0 -0.890625 -0.109375q-1.984375 -0.390625 -3.515625 -0.390625q-1.59375 0 -2.203125 0.484375q-0.59375 0.46875 -0.59375 1.171875l0 1.21875l4.9375 0q1.15625 0 1.640625 0.453125q0.5 0.4375 0.5 1.15625q0 0.703125 -0.5 1.15625q-0.484375 0.4375 -1.640625 0.4375l-4.9375 0zm17.140625 -8.578125l4.125 0l-1.015625 8.25q-0.078125 0.65625 -0.34375 0.90625q-0.25 0.234375 -0.671875 0.234375q-0.390625 0 -0.65625 -0.234375q-0.25 -0.25 -0.328125 -0.890625l-1.109375 -8.265625zm20.140625 11.78125q0 -2.734375 0.90625 -5.53125q0.671875 -2.0625 2.078125 -4.59375q1.015625 -1.8125 1.5 -2.21875q0.484375 -0.421875 1.078125 -0.421875q0.6875 0 1.15625 0.46875q0.46875 0.46875 0.46875 1.125q0 0.453125 -0.375 1.078125q-1.6875 2.765625 -2.46875 5.1875q-0.765625 2.421875 -0.765625 4.90625q0 2.5 0.765625 4.921875q0.78125 2.421875 2.46875 5.1875q0.375 0.609375 0.375 1.078125q0 0.65625 -0.46875 1.125q-0.46875 0.46875 -1.15625 0.46875q-0.578125 0 -1.015625 -0.375q-0.625 -0.546875 -1.65625 -2.453125q-1.484375 -2.765625 -2.03125 -4.5625q-0.859375 -2.75 -0.859375 -5.390625zm22.75 0.40625l4.859375 4.171875q0.875 0.046875 1.3125 0.5q0.4375 0.4375 0.4375 1.109375q0 0.703125 -0.5 1.15625q-0.484375 0.4375 -1.640625 0.4375l-3.640625 0q-1.15625 0 -1.65625 -0.4375q-0.484375 -0.453125 -0.484375 -1.1875q0 -0.5625 0.34375 -0.984375q0.359375 -0.4375 0.96875 -0.59375l-2.390625 -2.0625l-2.4375 2.0625q0.734375 0.1875 1.046875 0.578125q0.328125 0.390625 0.328125 1.0q0 0.734375 -0.484375 1.1875q-0.484375 0.4375 -1.640625 0.4375l-3.609375 0q-1.15625 0 -1.65625 -0.4375q-0.484375 -0.453125 -0.484375 -1.171875q0 -0.65625 0.4375 -1.09375q0.4375 -0.453125 1.3125 -0.5l4.75 -4.1875l-4.203125 -3.59375q-0.828125 -0.0625 -1.265625 -0.5q-0.421875 -0.453125 -0.421875 -1.109375q0 -0.703125 0.484375 -1.140625q0.5 -0.453125 1.65625 -0.453125l3.0 0q1.15625 0 1.640625 0.453125q0.5 0.4375 0.5 1.125q0 0.921875 -0.875 1.5l1.9375 1.609375l1.90625 -1.640625q-0.859375 -0.609375 -0.859375 -1.40625q0 -0.75 0.484375 -1.1875q0.5 -0.453125 1.65625 -0.453125l2.96875 0q1.15625 0 1.640625 0.453125q0.5 0.4375 0.5 1.15625q0 0.640625 -0.4375 1.09375q-0.421875 0.4375 -1.265625 0.5l-4.21875 3.609375zm18.171875 -0.40625q0 2.734375 -0.90625 5.546875q-0.671875 2.0625 -2.078125 4.578125q-1.015625 1.8125 -1.5 2.234375q-0.484375 0.421875 -1.078125 0.421875q-0.6875 0 -1.15625 -0.46875q-0.46875 -0.46875 -0.46875 -1.125q0 -0.46875 0.375 -1.078125q1.6875 -2.765625 2.453125 -5.1875q0.78125 -2.421875 0.78125 -4.921875q0 -2.484375 -0.78125 -4.90625q-0.765625 -2.421875 -2.453125 -5.1875q-0.375 -0.625 -0.375 -1.078125q0 -0.65625 0.46875 -1.125q0.46875 -0.46875 1.15625 -0.46875q0.578125 0 1.015625 0.375q0.625 0.53125 1.65625 2.453125q1.484375 2.765625 2.03125 4.546875q0.859375 2.765625 0.859375 5.390625z" fill-rule="nonzero"/><path fill="#d9ead3" d="m1195.9658 373.40176l0 0c0 -4.8677673 3.946167 -8.813843 8.813843 -8.813843l40.388184 0c2.3375244 0 4.5793457 0.92858887 6.2323 2.5815125c1.652832 1.6529236 2.581421 3.8947449 2.581421 6.2323303l0 35.254242c0 4.867737 -3.946045 8.813812 -8.813721 8.813812l-40.388184 0c-4.867676 0 -8.813843 -3.9460754 -8.813843 -8.813812z" fill-rule="evenodd"/><path stroke="#000000" stroke-width="2.0" stroke-linejoin="round" stroke-linecap="butt" d="m1195.9658 373.40176l0 0c0 -4.8677673 3.946167 -8.813843 8.813843 -8.813843l40.388184 0c2.3375244 0 4.5793457 0.92858887 6.2323 2.5815125c1.652832 1.6529236 2.581421 3.8947449 2.581421 6.2323303l0 35.254242c0 4.867737 -3.946045 8.813812 -8.813721 8.813812l-40.388184 0c-4.867676 0 -8.813843 -3.9460754 -8.813843 -8.813812z" fill-rule="evenodd"/><path fill="#000000" d="m1218.4406 399.56888l4.484375 -6.40625l-4.296875 -6.046875l4.015625 0l2.203125 3.421875l2.328125 -3.421875l3.859375 0l-4.21875 5.90625l4.609375 6.546875l-4.046875 0l-2.53125 -3.859375l-2.546875 3.859375l-3.859375 0z" fill-rule="nonzero"/><path fill="#000000" fill-opacity="0.0" d="m784.5772 252.58792l58.015747 0l0 52.881897l-58.015747 0z" fill-rule="evenodd"/><path stroke="#000000" stroke-width="2.0" stroke-linejoin="round" stroke-linecap="butt" d="m784.5772 252.58792l58.015747 0l0 52.881897l-58.015747 0z" fill-rule="evenodd"/><path fill="#000000" d="m812.0773 285.10013l0 -4.46875l-4.5 0l0 -3.078125l4.5 0l0 -4.46875l3.0 0l0 4.46875l4.515625 0l0 3.078125l-4.515625 0l0 4.46875l-3.0 0z" fill-rule="nonzero"/><path fill="#000000" fill-opacity="0.0" d="m1104.5771 252.58792l58.015747 0l0 52.881897l-58.015747 0z" fill-rule="evenodd"/><path stroke="#000000" stroke-width="2.0" stroke-linejoin="round" stroke-linecap="butt" d="m1104.5771 252.58792l58.015747 0l0 52.881897l-58.015747 0z" fill-rule="evenodd"/><path fill="#000000" d="m1130.2198 287.86575l4.25 -17.765625l2.46875 0l-4.296875 17.765625l-2.421875 0z" fill-rule="nonzero"/><path fill="#000000" fill-opacity="0.0" d="m944.5772 100.58793l58.015747 0l0 52.88189l-58.015747 0z" fill-rule="evenodd"/><path stroke="#000000" stroke-width="2.0" stroke-linejoin="round" stroke-linecap="butt" d="m944.5772 100.58793l58.015747 0l0 52.88189l-58.015747 0z" fill-rule="evenodd"/><path fill="#000000" d="m970.94836 130.99074l0 -3.2968674l6.46875 0l0 3.2968674l-6.46875 0z" fill-rule="nonzero"/><path fill="#000000" fill-opacity="0.0" d="m813.5851 252.58792l160.0 -99.1181" fill-rule="evenodd"/><path stroke="#000000" stroke-width="2.0" stroke-linejoin="round" stroke-linecap="butt" d="m813.5851 252.58792l160.0 -99.1181" fill-rule="evenodd"/><path fill="#000000" fill-opacity="0.0" d="m973.5851 153.46982l160.0 99.1181" fill-rule="evenodd"/><path stroke="#000000" stroke-width="2.0" stroke-linejoin="round" stroke-linecap="butt" d="m973.5851 153.46982l160.0 99.1181" fill-rule="evenodd"/><path fill="#000000" fill-opacity="0.0" d="m1133.5721 305.46982l91.40161 59.118103" fill-rule="evenodd"/><path stroke="#000000" stroke-width="2.0" stroke-linejoin="round" stroke-linecap="butt" d="m1133.5721 305.46982l91.40161 59.118103" fill-rule="evenodd"/><path fill="#cfe2f3" d="m586.85565 469.40176l0 0c0 -4.8677673 3.946045 -8.813843 8.813843 -8.813843l60.13611 0c2.3375854 0 4.5794067 0.92858887 6.2323 2.5815125c1.6528931 1.6529236 2.581543 3.8947449 2.581543 6.2323303l0 35.254242c0 4.867737 -3.946106 8.813782 -8.813843 8.813782l-60.13611 0c-4.867798 0 -8.813843 -3.946045 -8.813843 -8.813782z" fill-rule="evenodd"/><path stroke="#000000" stroke-width="2.0" stroke-linejoin="round" stroke-linecap="butt" d="m586.85565 469.40176l0 0c0 -4.8677673 3.946045 -8.813843 8.813843 -8.813843l60.13611 0c2.3375854 0 4.5794067 0.92858887 6.2323 2.5815125c1.6528931 1.6529236 2.581543 3.8947449 2.581543 6.2323303l0 35.254242c0 4.867737 -3.946106 8.813782 -8.813843 8.813782l-60.13611 0c-4.867798 0 -8.813843 -3.946045 -8.813843 -8.813782z" fill-rule="evenodd"/><path fill="#000000" d="m611.8352 495.56888l-3.296875 0l0 -12.40625q-1.8125 1.6875 -4.25 2.484375l0 -2.984375q1.28125 -0.421875 2.796875 -1.59375q1.515625 -1.1875 2.078125 -2.75l2.671875 0l0 17.25zm10.488281 -17.25q2.484375 0 3.890625 1.78125q1.6875 2.109375 1.6875 7.0q0 4.875 -1.6875 7.0q-1.40625 1.765625 -3.890625 1.765625q-2.515625 0 -4.046875 -1.921875q-1.53125 -1.9375 -1.53125 -6.890625q0 -4.84375 1.6875 -6.984375q1.390625 -1.75 3.890625 -1.75zm0 2.734375q-0.609375 0 -1.078125 0.375q-0.46875 0.375 -0.71875 1.359375q-0.34375 1.28125 -0.34375 4.3125q0 3.015625 0.296875 4.15625q0.3125 1.125 0.765625 1.5q0.46875 0.375 1.078125 0.375q0.59375 0 1.0625 -0.375q0.46875 -0.390625 0.71875 -1.375q0.34375 -1.265625 0.34375 -4.28125q0 -3.03125 -0.3125 -4.15625q-0.296875 -1.140625 -0.765625 -1.515625q-0.453125 -0.375 -1.046875 -0.375zm8.472656 14.515625l0 -3.296875l3.296875 0l0 3.296875l-3.296875 0zm11.542969 -17.25q2.484375 0 3.890625 1.78125q1.6875 2.109375 1.6875 7.0q0 4.875 -1.6875 7.0q-1.40625 1.765625 -3.890625 1.765625q-2.515625 0 -4.046875 -1.921875q-1.53125 -1.9375 -1.53125 -6.890625q0 -4.84375 1.6875 -6.984375q1.390625 -1.75 3.890625 -1.75zm0 2.734375q-0.609375 0 -1.078125 0.375q-0.46875 0.375 -0.71875 1.359375q-0.34375 1.28125 -0.34375 4.3125q0 3.015625 0.296875 4.15625q0.3125 1.125 0.765625 1.5q0.46875 0.375 1.078125 0.375q0.59375 0 1.0625 -0.375q0.46875 -0.390625 0.71875 -1.375q0.34375 -1.265625 0.34375 -4.28125q0 -3.03125 -0.3125 -4.15625q-0.296875 -1.140625 -0.765625 -1.515625q-0.453125 -0.375 -1.046875 -0.375z" fill-rule="nonzero"/><path fill="#000000" fill-opacity="0.0" d="m680.5772 356.58792l58.015747 0l0 52.881897l-58.015747 0z" fill-rule="evenodd"/><path stroke="#000000" stroke-width="2.0" stroke-linejoin="round" stroke-linecap="butt" d="m680.5772 356.58792l58.015747 0l0 52.881897l-58.015747 0z" fill-rule="evenodd"/><path fill="#000000" d="m707.79016 382.28763l-1.765625 -1.375q0.84375 -0.953125 1.75 -1.8125q0.359375 -0.359375 0.453125 -0.453125q-0.28125 -0.046875 -1.671875 -0.375q-1.0 -0.25 -1.3125 -0.375l0.6875 -2.0625q1.546875 0.625 2.75 1.375q-0.28125 -1.90625 -0.28125 -3.109375l2.078125 0q0 0.84375 -0.3125 3.140625q0.234375 -0.09375 1.015625 -0.46875q1.046875 -0.46875 1.9375 -0.8125l0.625 2.125q-1.296875 0.28125 -3.015625 0.5625l1.40625 1.59375q0.421875 0.46875 0.671875 0.78125l-1.796875 1.1875l-1.578125 -2.625q-0.71875 1.265625 -1.640625 2.703125z" fill-rule="nonzero"/><path fill="#000000" fill-opacity="0.0" d="m625.73755 460.58792l83.84253 -51.118103" fill-rule="evenodd"/><path stroke="#000000" stroke-width="2.0" stroke-linejoin="round" stroke-linecap="butt" d="m625.73755 460.58792l83.84253 -51.118103" fill-rule="evenodd"/><path fill="#000000" fill-opacity="0.0" d="m749.5851 460.58792l-40.0 -51.118103" fill-rule="evenodd"/><path stroke="#000000" stroke-width="2.0" stroke-linejoin="round" stroke-linecap="butt" d="m749.5851 460.58792l-40.0 -51.118103" fill-rule="evenodd"/><path fill="#000000" fill-opacity="0.0" d="m729.73755 356.58792l83.84253 -51.118103" fill-rule="evenodd"/><path stroke="#000000" stroke-width="2.0" stroke-linejoin="round" stroke-linecap="butt" d="m729.73755 356.58792l83.84253 -51.118103" fill-rule="evenodd"/><path fill="#000000" fill-opacity="0.0" d="m853.5851 356.58792l-40.0 -51.118103" fill-rule="evenodd"/><path stroke="#000000" stroke-width="2.0" stroke-linejoin="round" stroke-linecap="butt" d="m853.5851 356.58792l-40.0 -51.118103" fill-rule="evenodd"/><path fill="#cfe2f3" d="m714.85565 469.40176l0 0c0 -4.8677673 3.946045 -8.813843 8.813843 -8.813843l60.13611 0c2.3375854 0 4.5794067 0.92858887 6.2323 2.5815125c1.6528931 1.6529236 2.581543 3.8947449 2.581543 6.2323303l0 35.254242c0 4.867737 -3.946106 8.813782 -8.813843 8.813782l-60.13611 0c-4.867798 0 -8.813843 -3.946045 -8.813843 -8.813782z" fill-rule="evenodd"/><path stroke="#000000" stroke-width="2.0" stroke-linejoin="round" stroke-linecap="butt" d="m714.85565 469.40176l0 0c0 -4.8677673 3.946045 -8.813843 8.813843 -8.813843l60.13611 0c2.3375854 0 4.5794067 0.92858887 6.2323 2.5815125c1.6528931 1.6529236 2.581543 3.8947449 2.581543 6.2323303l0 35.254242c0 4.867737 -3.946106 8.813782 -8.813843 8.813782l-60.13611 0c-4.867798 0 -8.813843 -3.946045 -8.813843 -8.813782z" fill-rule="evenodd"/><path fill="#000000" d="m746.50903 495.56888l-3.296875 0l0 -12.40625q-1.8125 1.6875 -4.25 2.484375l0 -2.984375q1.28125 -0.421875 2.796875 -1.59375q1.515625 -1.1875 2.078125 -2.75l2.671875 0l0 17.25zm5.6132812 0l0 -3.296875l3.296875 0l0 3.296875l-3.296875 0zm11.542969 -17.25q2.484375 0 3.890625 1.78125q1.6875 2.109375 1.6875 7.0q0 4.875 -1.6875 7.0q-1.40625 1.765625 -3.890625 1.765625q-2.515625 0 -4.046875 -1.921875q-1.53125 -1.9375 -1.53125 -6.890625q0 -4.84375 1.6875 -6.984375q1.390625 -1.75 3.890625 -1.75zm0 2.734375q-0.609375 0 -1.078125 0.375q-0.46875 0.375 -0.71875 1.359375q-0.34375 1.28125 -0.34375 4.3125q0 3.015625 0.296875 4.15625q0.3125 1.125 0.765625 1.5q0.46875 0.375 1.078125 0.375q0.59375 0 1.0625 -0.375q0.46875 -0.390625 0.71875 -1.375q0.34375 -1.265625 0.34375 -4.28125q0 -3.03125 -0.3125 -4.15625q-0.296875 -1.140625 -0.765625 -1.515625q-0.453125 -0.375 -1.046875 -0.375z" fill-rule="nonzero"/><path fill="#cfe2f3" d="m826.85565 469.40176l0 0c0 -4.8677673 3.946045 -8.813843 8.813843 -8.813843l60.13611 0c2.3375854 0 4.5794067 0.92858887 6.2323 2.5815125c1.6528931 1.6529236 2.581543 3.8947449 2.581543 6.2323303l0 35.254242c0 4.867737 -3.946106 8.813782 -8.813843 8.813782l-60.13611 0c-4.867798 0 -8.813843 -3.946045 -8.813843 -8.813782z" fill-rule="evenodd"/><path stroke="#000000" stroke-width="2.0" stroke-linejoin="round" stroke-linecap="butt" d="m826.85565 469.40176l0 0c0 -4.8677673 3.946045 -8.813843 8.813843 -8.813843l60.13611 0c2.3375854 0 4.5794067 0.92858887 6.2323 2.5815125c1.6528931 1.6529236 2.581543 3.8947449 2.581543 6.2323303l0 35.254242c0 4.867737 -3.946106 8.813782 -8.813843 8.813782l-60.13611 0c-4.867798 0 -8.813843 -3.946045 -8.813843 -8.813782z" fill-rule="evenodd"/><path fill="#000000" d="m865.6575 478.31888q2.484375 0 3.890625 1.78125q1.6875 2.109375 1.6875 7.0q0 4.875 -1.6875 7.0q-1.40625 1.765625 -3.890625 1.765625q-2.515625 0 -4.046875 -1.921875q-1.53125 -1.9375 -1.53125 -6.890625q0 -4.84375 1.6875 -6.984375q1.390625 -1.75 3.890625 -1.75zm0 2.734375q-0.609375 0 -1.078125 0.375q-0.46875 0.375 -0.71875 1.359375q-0.34375 1.28125 -0.34375 4.3125q0 3.015625 0.296875 4.15625q0.3125 1.125 0.765625 1.5q0.46875 0.375 1.078125 0.375q0.59375 0 1.0625 -0.375q0.46875 -0.390625 0.71875 -1.375q0.34375 -1.265625 0.34375 -4.28125q0 -3.03125 -0.3125 -4.15625q-0.296875 -1.140625 -0.765625 -1.515625q-0.453125 -0.375 -1.046875 -0.375z" fill-rule="nonzero"/><path fill="#d9ead3" d="m938.85565 469.40176l0 0c0 -4.8677673 3.946045 -8.813843 8.813843 -8.813843l40.38806 0c2.3375854 0 4.5794067 0.92858887 6.2323 2.5815125c1.6529541 1.6529236 2.581543 3.8947449 2.581543 6.2323303l0 35.254242c0 4.867737 -3.946106 8.813782 -8.813843 8.813782l-40.38806 0c-4.867798 0 -8.813843 -3.946045 -8.813843 -8.813782z" fill-rule="evenodd"/><path stroke="#000000" stroke-width="2.0" stroke-linejoin="round" stroke-linecap="butt" d="m938.85565 469.40176l0 0c0 -4.8677673 3.946045 -8.813843 8.813843 -8.813843l40.38806 0c2.3375854 0 4.5794067 0.92858887 6.2323 2.5815125c1.6529541 1.6529236 2.581543 3.8947449 2.581543 6.2323303l0 35.254242c0 4.867737 -3.946106 8.813782 -8.813843 8.813782l-40.38806 0c-4.867798 0 -8.813843 -3.946045 -8.813843 -8.813782z" fill-rule="evenodd"/><path fill="#000000" d="m961.3303 495.56888l4.484375 -6.40625l-4.296875 -6.046875l4.015625 0l2.203125 3.421875l2.328125 -3.421875l3.859375 0l-4.21875 5.90625l4.609375 6.546875l-4.046875 0l-2.53125 -3.859375l-2.546875 3.859375l-3.859375 0z" fill-rule="nonzero"/><path fill="#000000" fill-opacity="0.0" d="m856.5772 356.58792l58.015747 0l0 52.881897l-58.015747 0z" fill-rule="evenodd"/><path stroke="#000000" stroke-width="2.0" stroke-linejoin="round" stroke-linecap="butt" d="m856.5772 356.58792l58.015747 0l0 52.881897l-58.015747 0z" fill-rule="evenodd"/><path fill="#000000" d="m883.79016 382.28763l-1.765625 -1.375q0.84375 -0.953125 1.75 -1.8125q0.359375 -0.359375 0.453125 -0.453125q-0.28125 -0.046875 -1.671875 -0.375q-1.0 -0.25 -1.3125 -0.375l0.6875 -2.0625q1.546875 0.625 2.75 1.375q-0.28125 -1.90625 -0.28125 -3.109375l2.078125 0q0 0.84375 -0.3125 3.140625q0.234375 -0.09375 1.015625 -0.46875q1.046875 -0.46875 1.9375 -0.8125l0.625 2.125q-1.296875 0.28125 -3.015625 0.5625l1.40625 1.59375q0.421875 0.46875 0.671875 0.78125l-1.796875 1.1875l-1.578125 -2.625q-0.71875 1.265625 -1.640625 2.703125z" fill-rule="nonzero"/><path fill="#000000" fill-opacity="0.0" d="m865.73755 460.58792l19.84253 -51.118103" fill-rule="evenodd"/><path stroke="#000000" stroke-width="2.0" stroke-linejoin="round" stroke-linecap="butt" d="m865.73755 460.58792l19.84253 -51.118103" fill-rule="evenodd"/><path fill="#000000" fill-opacity="0.0" d="m967.8635 460.58792l-82.2677 -51.118103" fill-rule="evenodd"/><path stroke="#000000" stroke-width="2.0" stroke-linejoin="round" stroke-linecap="butt" d="m967.8635 460.58792l-82.2677 -51.118103" fill-rule="evenodd"/><path fill="#cfe2f3" d="m1066.8556 373.40176l0 0c0 -4.8677673 3.946167 -8.813843 8.813843 -8.813843l60.13611 0c2.3376465 0 4.579468 0.92858887 6.232422 2.5815125c1.652832 1.6529236 2.581421 3.8947449 2.581421 6.2323303l0 35.254242c0 4.867737 -3.946045 8.813812 -8.813843 8.813812l-60.13611 0c-4.867676 0 -8.813843 -3.9460754 -8.813843 -8.813812z" fill-rule="evenodd"/><path stroke="#000000" stroke-width="2.0" stroke-linejoin="round" stroke-linecap="butt" d="m1066.8556 373.40176l0 0c0 -4.8677673 3.946167 -8.813843 8.813843 -8.813843l60.13611 0c2.3376465 0 4.579468 0.92858887 6.232422 2.5815125c1.652832 1.6529236 2.581421 3.8947449 2.581421 6.2323303l0 35.254242c0 4.867737 -3.946045 8.813812 -8.813843 8.813812l-60.13611 0c-4.867676 0 -8.813843 -3.9460754 -8.813843 -8.813812z" fill-rule="evenodd"/><path fill="#000000" d="m1108.5168 399.56888l-3.296875 0l0 -12.40625q-1.8125 1.6875 -4.25 2.484375l0 -2.984375q1.28125 -0.421875 2.796875 -1.59375q1.515625 -1.1875 2.078125 -2.75l2.671875 0l0 17.25z" fill-rule="nonzero"/><path fill="#000000" fill-opacity="0.0" d="m1105.7375 364.58792l27.84253 -59.118103" fill-rule="evenodd"/><path stroke="#000000" stroke-width="2.0" stroke-linejoin="round" stroke-linecap="butt" d="m1105.7375 364.58792l27.84253 -59.118103" fill-rule="evenodd"/><path fill="#000000" fill-opacity="0.0" d="m546.45667 13.220472l0 486.96063" fill-rule="evenodd"/><path stroke="#000000" stroke-width="3.0" stroke-linejoin="round" stroke-linecap="butt" d="m546.45667 13.220472l0 486.96063" fill-rule="evenodd"/></g></svg>