<svg version="1.1" viewBox="0.0 0.0 409.6640419947507 373.78740157480314" fill="none" stroke="none" stroke-linecap="square" stroke-miterlimit="10" xmlns:xlink="http://www.w3.org/1999/xlink" xmlns="http://www.w3.org/2000/svg"><clipPath id="p.0"><path d="m0 0l409.66403 0l0 373.7874l-409.66403 0l0 -373.7874z" clip-rule="nonzero"/></clipPath><g clip-path="url(#p.0)"><path fill="#000000" fill-opacity="0.0" d="m0 0l409.66403 0l0 373.7874l-409.66403 0z" fill-rule="evenodd"/><path fill="#000000" fill-opacity="0.0" d="m8.2021 9.0131235l392.31497 0l0 355.43307l-392.31497 0z" fill-rule="evenodd"/><path stroke="#000000" stroke-width="2.0" stroke-linejoin="round" stroke-linecap="butt" d="m8.2021 9.0131235l392.31497 0l0 355.43307l-392.31497 0z" fill-rule="evenodd"/><path fill="#000000" d="m96.30446 201.42397l0 0c0 -25.170273 20.404541 -45.5748 45.574814 -45.5748l0 0c12.087189 0 23.679306 4.8016205 32.226242 13.348541c8.546936 8.546936 13.3485565 20.139069 13.3485565 32.226257l0 0c0 25.170273 -20.404541 45.5748 -45.5748 45.5748l0 0c-25.170273 0 -45.574814 -20.404526 -45.574814 -45.5748z" fill-rule="evenodd"/><path fill="#000000" fill-opacity="0.0" d="m142.96451 204.27484l0 66.834656" fill-rule="evenodd"/><path stroke="#ff0000" stroke-width="3.0" stroke-linejoin="round" stroke-linecap="butt" stroke-dasharray="12.0,9.0" d="m142.96451 204.27483l0 48.834656" fill-rule="evenodd"/><path fill="#ff0000" stroke="#ff0000" stroke-width="3.0" stroke-linecap="butt" d="m138.00931 253.10948l4.9552 13.614304l4.9552 -13.614304z" fill-rule="evenodd"/><path fill="#000000" fill-opacity="0.0" d="m91.34961 187.849l47.086624 0l0 48.472443l-47.086624 0z" fill-rule="evenodd"/><path fill="#00ff00" d="m111.6937 219.88899l2.609375 -12.453125l1.875 0l-0.53125 2.546875q0.953125 -1.4375 1.875 -2.125q0.921875 -0.703125 1.890625 -0.703125q0.625 0 1.546875 0.46875l-0.859375 1.96875q-0.546875 -0.40625 -1.203125 -0.40625q-1.125 0 -2.296875 1.25q-1.171875 1.234375 -1.828125 4.453125l-1.0625 5.0l-2.015625 0z" fill-rule="nonzero"/><path fill="#000000" fill-opacity="0.0" d="m144.89711 203.4455l-35.244095 30.204727" fill-rule="evenodd"/><path stroke="#00ff00" stroke-width="3.0" stroke-linejoin="round" stroke-linecap="butt" d="m144.89711 203.4455l-35.244095 30.204727" fill-rule="evenodd"/><path fill="#000000" fill-opacity="0.0" d="m142.96451 204.27484l107.81102 62.236206" fill-rule="evenodd"/><path stroke="#ff0000" stroke-width="3.0" stroke-linejoin="round" stroke-linecap="butt" d="m142.96451 204.27483l92.22203 53.237137" fill-rule="evenodd"/><path fill="#ff0000" stroke="#ff0000" stroke-width="3.0" stroke-linecap="butt" d="m232.7092 261.80344l14.268066 2.5149841l-9.313385 -11.097916z" fill-rule="evenodd"/><path fill="#000000" fill-opacity="0.0" d="m142.96451 204.27484l108.157486 0" fill-rule="evenodd"/><path stroke="#ff0000" stroke-width="3.0" stroke-linejoin="round" stroke-linecap="butt" stroke-dasharray="3.0,9.0" d="m142.96451 204.27483l90.15747 0" fill-rule="evenodd"/><path fill="#ff0000" stroke="#ff0000" stroke-width="3.0" stroke-linecap="butt" d="m233.122 209.23003l13.614288 -4.9552l-13.614288 -4.955185z" fill-rule="evenodd"/><path fill="#000000" fill-opacity="0.0" d="m137.56755 231.6261l47.08661 0l0 48.472443l-47.08661 0z" fill-rule="evenodd"/><path fill="#ff0000" d="m155.04836 263.6661l-2.03125 -12.453125l2.0625 0l1.0625 6.859375q0.171875 1.125 0.4375 3.671875q0.609375 -1.328125 1.546875 -3.03125l4.171875 -7.5l2.234375 0l-7.125 12.453125l-2.359375 0z" fill-rule="nonzero"/><path fill="#ff0000" d="m163.11086 275.86923l0.09375 -1.328125q0.4375 0.125 0.84375 0.125q0.4375 0 0.703125 -0.1875q0.34375 -0.265625 0.75 -0.96875l0.453125 -0.8125l-1.390625 -8.328125l1.390625 0l0.625 4.1875q0.1875 1.25 0.328125 2.484375l3.703125 -6.671875l1.484375 0l-5.296875 9.40625q-0.765625 1.375 -1.359375 1.8125q-0.59375 0.453125 -1.359375 0.453125q-0.5 0 -0.96875 -0.171875z" fill-rule="nonzero"/><path fill="#000000" fill-opacity="0.0" d="m217.56755 151.6261l47.086624 0l0 48.472443l-47.086624 0z" fill-rule="evenodd"/><path fill="#ff0000" d="m235.04836 183.6661l-2.03125 -12.453125l2.0625 0l1.0625 6.859375q0.171875 1.125 0.4375 3.671875q0.609375 -1.328125 1.546875 -3.03125l4.171875 -7.5l2.234375 0l-7.125 12.453125l-2.359375 0z" fill-rule="nonzero"/><path fill="#ff0000" d="m243.0796 192.6661l3.625 -4.21875l-2.078125 -4.078125l1.5625 0l0.703125 1.46875q0.390625 0.828125 0.703125 1.59375l2.390625 -3.0625l1.734375 0l-3.484375 4.1875l2.09375 4.109375l-1.5625 0l-0.828125 -1.6875q-0.265625 -0.546875 -0.609375 -1.34375l-2.46875 3.03125l-1.78125 0z" fill-rule="nonzero"/><path fill="#000000" fill-opacity="0.0" d="m241.56755 247.6261l47.086624 0l0 48.472443l-47.086624 0z" fill-rule="evenodd"/><path fill="#ff0000" d="m263.04837 279.6661l-2.03125 -12.453125l2.0625 0l1.0625 6.859375q0.171875 1.125 0.4375 3.671875q0.609375 -1.328125 1.546875 -3.03125l4.171875 -7.5l2.234375 0l-7.125 12.453125l-2.359375 0z" fill-rule="nonzero"/></g></svg>