<svg version="1.1" viewBox="0.0 0.0 407.45669291338584 370.62467191601047" fill="none" stroke="none" stroke-linecap="square" stroke-miterlimit="10" xmlns:xlink="http://www.w3.org/1999/xlink" xmlns="http://www.w3.org/2000/svg"><clipPath id="p.0"><path d="m0 0l407.4567 0l0 370.62466l-407.4567 0l0 -370.62466z" clip-rule="nonzero"/></clipPath><g clip-path="url(#p.0)"><path fill="#000000" fill-opacity="0.0" d="m0 0l407.4567 0l0 370.62466l-407.4567 0z" fill-rule="evenodd"/><path fill="#000000" fill-opacity="0.0" d="m8.2021 9.0131235l392.31497 0l0 355.43307l-392.31497 0z" fill-rule="evenodd"/><path stroke="#000000" stroke-width="2.0" stroke-linejoin="round" stroke-linecap="butt" d="m8.2021 9.0131235l392.31497 0l0 355.43307l-392.31497 0z" fill-rule="evenodd"/><path fill="#000000" d="m62.824146 262.38458l0 0c0 -25.170258 20.404537 -45.574783 45.574802 -45.574783l0 0c12.087189 0 23.679314 4.801605 32.22625 13.348541c8.546936 8.546936 13.3485565 20.139069 13.3485565 32.226242l0 0c0 25.170288 -20.404541 45.57483 -45.574806 45.57483l0 0c-25.170265 0 -45.574802 -20.404541 -45.574802 -45.57483z" fill-rule="evenodd"/><path fill="#ffffff" d="m97.496605 260.76834l0 1.796875q0.875 -1.0625 1.875 -1.59375q1.015625 -0.546875 2.390625 -0.546875q1.453125 0 2.671875 0.6875q1.234375 0.671875 1.90625 1.890625q0.671875 1.203125 0.671875 2.546875q0 2.109375 -1.515625 3.625q-1.515625 1.5 -3.734375 1.5q-2.625 0 -4.265625 -2.140625l0 5.9375l2.390625 0q0.34375 0 0.5 0.125q0.15625 0.140625 0.15625 0.359375q0 0.21875 -0.15625 0.359375q-0.15625 0.140625 -0.5 0.140625l-4.703125 0q-0.359375 0 -0.515625 -0.140625q-0.140625 -0.140625 -0.140625 -0.359375q0 -0.21875 0.140625 -0.359375q0.15625 -0.125 0.515625 -0.125l1.328125 0l0 -12.703125l-1.328125 0q-0.359375 0 -0.515625 -0.140625q-0.140625 -0.140625 -0.140625 -0.359375q0 -0.21875 0.140625 -0.359375q0.15625 -0.140625 0.515625 -0.140625l2.3125 0zm8.53125 4.78125q0 -1.703125 -1.25 -2.90625q-1.234375 -1.21875 -3.015625 -1.21875q-1.78125 0 -3.03125 1.21875q-1.234375 1.21875 -1.234375 2.90625q0 1.6875 1.234375 2.90625q1.25 1.21875 3.03125 1.21875q1.78125 0 3.015625 -1.203125q1.25 -1.21875 1.25 -2.921875zm10.058594 -9.53125l0 13.921875l3.375 0q0.359375 0 0.5 0.140625q0.15625 0.125 0.15625 0.34375q0 0.21875 -0.15625 0.359375q-0.140625 0.140625 -0.5 0.140625l-7.734375 0q-0.34375 0 -0.5 -0.140625q-0.15625 -0.140625 -0.15625 -0.359375q0 -0.21875 0.15625 -0.34375q0.15625 -0.140625 0.5 -0.140625l3.375 0l0 -12.5625l-3.203125 1.0q-0.234375 0.078125 -0.34375 0.078125q-0.171875 0 -0.328125 -0.140625q-0.140625 -0.15625 -0.140625 -0.359375q0 -0.171875 0.109375 -0.328125q0.09375 -0.09375 0.390625 -0.1875l4.5 -1.421875z" fill-rule="nonzero"/><path fill="#0000ff" d="m275.15887 311.5373l0 0c0 -25.170288 20.404541 -45.57483 45.5748 -45.57483l0 0c12.087189 0 23.679321 4.8016357 32.226257 13.348572c8.546936 8.546936 13.348572 20.139069 13.348572 32.226257l0 0c0 25.170258 -20.404541 45.5748 -45.57483 45.5748l0 0c-25.170258 0 -45.5748 -20.404541 -45.5748 -45.5748z" fill-rule="evenodd"/><path fill="#ffffff" d="m309.83133 309.92102l0 1.796875q0.875 -1.0625 1.875 -1.59375q1.015625 -0.546875 2.390625 -0.546875q1.453125 0 2.671875 0.6875q1.234375 0.671875 1.90625 1.890625q0.671875 1.203125 0.671875 2.546875q0 2.109375 -1.515625 3.625q-1.515625 1.5 -3.734375 1.5q-2.625 0 -4.265625 -2.140625l0 5.9375l2.390625 0q0.34375 0 0.5 0.125q0.15625 0.140625 0.15625 0.359375q0 0.21875 -0.15625 0.359375q-0.15625 0.140625 -0.5 0.140625l-4.703125 0q-0.359375 0 -0.515625 -0.140625q-0.140625 -0.140625 -0.140625 -0.359375q0 -0.21875 0.140625 -0.359375q0.15625 -0.125 0.515625 -0.125l1.328125 0l0 -12.703125l-1.328125 0q-0.359375 0 -0.515625 -0.140625q-0.140625 -0.140625 -0.140625 -0.359375q0 -0.21875 0.140625 -0.359375q0.15625 -0.140625 0.515625 -0.140625l2.3125 0zm8.53125 4.78125q0 -1.703125 -1.25 -2.90625q-1.234375 -1.21875 -3.015625 -1.21875q-1.78125 0 -3.03125 1.21875q-1.234375 1.21875 -1.234375 2.90625q0 1.6875 1.234375 2.90625q1.25 1.21875 3.03125 1.21875q1.78125 0 3.015625 -1.203125q1.25 -1.21875 1.25 -2.921875zm5.3398438 4.390625l7.5625 0l0 -0.390625q0 -0.34375 0.140625 -0.5q0.140625 -0.15625 0.359375 -0.15625q0.203125 0 0.34375 0.15625q0.140625 0.15625 0.140625 0.5l0 1.375l-9.515625 0l0 -1.453125q3.0 -2.703125 5.84375 -5.484375q1.328125 -1.296875 1.8125 -1.90625q0.5 -0.609375 0.671875 -1.078125q0.1875 -0.46875 0.1875 -0.9375q0 -1.265625 -1.03125 -2.234375q-1.015625 -0.96875 -2.453125 -0.96875q-1.28125 0 -2.28125 0.734375q-1.0 0.734375 -1.296875 1.828125q-0.0625 0.28125 -0.171875 0.359375q-0.140625 0.125 -0.328125 0.125q-0.203125 0 -0.34375 -0.125q-0.125 -0.140625 -0.125 -0.328125q0 -0.5625 0.609375 -1.515625q0.625 -0.96875 1.703125 -1.515625q1.09375 -0.5625 2.21875 -0.5625q1.84375 0 3.171875 1.28125q1.328125 1.28125 1.328125 2.890625q0 0.6875 -0.234375 1.25q-0.21875 0.5625 -0.75 1.25q-0.53125 0.671875 -1.921875 2.03125q-3.46875 3.421875 -5.640625 5.296875l0 0.078125z" fill-rule="nonzero"/><path fill="#000000" fill-opacity="0.0" d="m312.89383 312.94934l-96.25195 0" fill-rule="evenodd"/><path stroke="#ff0000" stroke-width="3.0" stroke-linejoin="round" stroke-linecap="butt" d="m312.89383 312.94934l-78.25195 0" fill-rule="evenodd"/><path fill="#ff0000" stroke="#ff0000" stroke-width="3.0" stroke-linecap="butt" d="m234.64188 307.99414l-13.614288 4.9552l13.614288 4.9552z" fill-rule="evenodd"/><path fill="#000000" fill-opacity="0.0" d="m107.989555 263.79834l96.09449 0" fill-rule="evenodd"/><path stroke="#ff0000" stroke-width="3.0" stroke-linejoin="round" stroke-linecap="butt" d="m107.989555 263.79834l78.094475 0" fill-rule="evenodd"/><path fill="#ff0000" stroke="#ff0000" stroke-width="3.0" stroke-linecap="butt" d="m186.08403 268.75354l13.614288 -4.9552l-13.614288 -4.9552z" fill-rule="evenodd"/><path fill="#6aa84f" d="m195.15889 167.53728l0 0c0 -25.170273 20.404526 -45.5748 45.5748 -45.5748l0 0c12.087189 0 23.679306 4.801613 32.226242 13.348541c8.546936 8.546936 13.348572 20.139069 13.348572 32.226257l0 0c0 25.170273 -20.404541 45.5748 -45.574814 45.5748l0 0c-25.170273 0 -45.5748 -20.404526 -45.5748 -45.5748z" fill-rule="evenodd"/><path fill="#ffffff" d="m229.83134 165.92102l0 1.796875q0.875 -1.0625 1.875 -1.59375q1.015625 -0.546875 2.390625 -0.546875q1.453125 0 2.671875 0.6875q1.234375 0.671875 1.90625 1.890625q0.671875 1.203125 0.671875 2.546875q0 2.109375 -1.515625 3.625q-1.515625 1.5 -3.734375 1.5q-2.625 0 -4.265625 -2.140625l0 5.9375l2.390625 0q0.34375 0 0.5 0.125q0.15625 0.140625 0.15625 0.359375q0 0.21875 -0.15625 0.359375q-0.15625 0.140625 -0.5 0.140625l-4.703125 0q-0.359375 0 -0.515625 -0.140625q-0.140625 -0.140625 -0.140625 -0.359375q0 -0.21875 0.140625 -0.359375q0.15625 -0.125 0.515625 -0.125l1.328125 0l0 -12.703125l-1.328125 0q-0.359375 0 -0.515625 -0.140625q-0.140625 -0.140625 -0.140625 -0.359375q0 -0.21875 0.140625 -0.359375q0.15625 -0.140625 0.515625 -0.140625l2.3125 0zm8.53125 4.78125q0 -1.703125 -1.25 -2.90625q-1.234375 -1.21875 -3.015625 -1.21875q-1.78125 0 -3.03125 1.21875q-1.234375 1.21875 -1.234375 2.90625q0 1.6875 1.234375 2.90625q1.25 1.21875 3.03125 1.21875q1.78125 0 3.015625 -1.203125q1.25 -1.21875 1.25 -2.921875zm11.589844 -2.625q1.359375 0.609375 2.078125 1.671875q0.71875 1.046875 0.71875 2.203125q0 1.765625 -1.4375 3.125q-1.4375 1.359375 -3.59375 1.359375q-1.265625 0 -2.625 -0.546875q-1.359375 -0.546875 -1.890625 -1.109375q-0.1875 -0.1875 -0.1875 -0.390625q0 -0.1875 0.140625 -0.328125q0.140625 -0.140625 0.328125 -0.140625q0.1875 0 0.421875 0.171875q1.8125 1.34375 3.84375 1.34375q1.703125 0 2.859375 -1.0625q1.15625 -1.078125 1.15625 -2.390625q0 -0.875 -0.578125 -1.71875q-0.5625 -0.84375 -1.625 -1.328125q-1.0625 -0.484375 -2.15625 -0.484375q-0.359375 0 -0.515625 -0.140625q-0.140625 -0.140625 -0.140625 -0.359375q0 -0.203125 0.140625 -0.34375q0.15625 -0.140625 0.4375 -0.140625l0.84375 0q1.328125 0 2.1875 -0.796875q0.859375 -0.8125 0.859375 -1.875q0 -1.109375 -0.90625 -1.953125q-0.890625 -0.84375 -2.34375 -0.84375q-1.015625 0 -1.875 0.359375q-0.859375 0.34375 -1.375 0.953125q-0.1875 0.234375 -0.296875 0.296875q-0.09375 0.046875 -0.21875 0.046875q-0.203125 0 -0.34375 -0.125q-0.140625 -0.140625 -0.140625 -0.328125q0 -0.46875 1.03125 -1.1875q1.40625 -1.0 3.21875 -1.0q1.859375 0 3.046875 1.125q1.203125 1.109375 1.203125 2.65625q0 0.984375 -0.578125 1.875q-0.5625 0.875 -1.6875 1.40625z" fill-rule="nonzero"/><path fill="#000000" fill-opacity="0.0" d="m238.29156 170.10036l-43.307083 43.307083" fill-rule="evenodd"/><path stroke="#ff0000" stroke-width="3.0" stroke-linejoin="round" stroke-linecap="butt" d="m238.29156 170.10036l-30.579178 30.579163" fill-rule="evenodd"/><path fill="#ff0000" stroke="#ff0000" stroke-width="3.0" stroke-linecap="butt" d="m204.20854 197.17566l-6.1228943 13.130615l13.1306 -6.1229095z" fill-rule="evenodd"/></g></svg>